<svg width="40" height="32" viewBox="0 0 40 32" fill="none" xmlns="http://www.w3.org/2000/svg">
<path id="Vector" d="M14.2496 26.1719C14.0604 27.1703 13.87 28.17 13.6807 29.1684C13.5399 29.9085 13.3979 30.6487 13.2594 31.3901C13.1873 31.7804 12.9743 31.991 12.5924 31.9922C12.0021 31.9946 11.4117 32.0041 10.8214 31.991C10.3099 31.9791 10.1342 31.7578 10.1432 31.2044C10.1736 29.3802 10.2705 27.5547 10.2108 25.734C10.1522 23.9585 9.93928 22.1878 9.77818 20.4171C9.76015 20.2219 9.68242 20.0006 9.56412 19.853C8.70341 18.7797 7.82692 17.7194 6.94705 16.6627C6.87044 16.5698 6.74201 16.5008 6.62597 16.4711C5.53205 16.1986 4.80877 15.4584 4.30631 14.4386C3.67542 13.1557 3.42644 11.7599 3.23154 10.3497C3.19098 10.057 3.15944 9.76304 3.12902 9.51076C2.57812 9.28228 2.00355 9.1371 1.53264 8.82175C1.03468 8.48855 0.597565 8.02445 0.201004 7.55559C-0.138101 7.15338 -0.0355807 6.76305 0.41393 6.48935C1.22846 5.99312 2.12185 5.84913 3.05016 5.86579C3.2045 5.86818 3.35885 5.8063 3.51319 5.77417C3.44785 5.63613 3.39828 5.485 3.31378 5.36124C2.37195 3.96894 1.95398 2.41956 2.04749 0.71191C2.06552 0.38228 2.18381 0.0776417 2.4925 0.0514618C2.71331 0.0324218 3.03213 0.157373 3.16733 0.335873C3.98749 1.42115 4.88763 2.41599 5.96353 3.21805C6.11449 3.3311 6.33981 3.37513 6.53133 3.3787C7.58132 3.39298 8.63243 3.39417 9.68242 3.37632C9.88633 3.37275 10.1252 3.32039 10.2863 3.2002C11.3149 2.43265 12.1958 1.4985 12.9586 0.440594C13.1625 0.157374 13.3754 -0.10443 13.7607 0.0419397C14.1313 0.18236 14.1741 0.514369 14.1877 0.874939C14.2485 2.58616 13.7922 4.12245 12.8177 5.48857C12.7625 5.56473 12.7253 5.65517 12.6341 5.82534C12.8797 5.80868 13.0509 5.80749 13.221 5.78488C16.0916 5.41598 18.9734 5.56592 21.853 5.53617C23.775 5.51594 25.6958 5.34696 27.6144 5.20178C29.3505 5.07088 31.0832 4.80194 32.8215 5.1518C34.1656 5.42193 35.1581 6.1871 35.7371 7.5187C35.78 7.61628 35.8588 7.72934 35.9467 7.76623C36.9651 8.1982 37.5149 9.07047 37.9194 10.0808C38.4376 11.3767 38.6618 12.7487 38.8116 14.1339C38.8995 14.9443 38.9355 15.7594 39.0054 16.5722C39.0155 16.696 39.0448 16.865 39.1248 16.928C40.0126 17.6373 40.0464 18.6547 39.9765 19.671C39.9123 20.6039 39.5653 21.4512 39.0099 22.1902C38.646 22.6733 38.2528 22.6745 37.9047 22.1819C37.0462 20.9633 36.688 19.6115 37.0677 18.1204C37.1645 17.7408 37.4484 17.4147 37.6411 17.0625C37.7053 16.9447 37.8112 16.815 37.8056 16.696C37.7019 14.7408 37.56 12.7868 36.9381 10.9209C36.7838 10.458 36.5359 10.0284 36.332 9.58335C36.2959 9.59644 36.2599 9.60953 36.2238 9.62262C36.2238 10.1022 36.2655 10.5877 36.216 11.0625C36.0886 12.268 35.8566 13.4651 35.7867 14.673C35.7169 15.8808 35.6865 17.1125 35.8295 18.3072C36.0808 20.4064 36.0042 22.4817 35.7349 24.5595C35.4544 26.7324 35.1446 28.9006 34.8516 31.0712C34.7435 31.8732 34.6184 31.997 33.858 31.997C33.2113 31.997 32.5647 32.0053 31.918 31.9934C31.3975 31.9839 31.1913 31.7673 31.233 31.2211C31.3479 29.7134 31.4876 28.208 31.6172 26.7015C31.6938 25.8007 31.7851 24.8998 31.829 23.9966C31.8369 23.8276 31.6555 23.6479 31.5609 23.4742C31.5169 23.4921 31.4719 23.5111 31.4279 23.529C31.3344 24.2989 31.2499 25.07 31.1452 25.8376C30.8928 27.6856 30.6337 29.5313 30.3701 31.3782C30.3149 31.7626 30.1042 31.9934 29.7166 31.9946C28.9573 31.997 28.198 32.0065 27.4398 31.9922C26.9565 31.9827 26.7334 31.6971 26.7796 31.1783C26.9903 28.8161 27.2088 26.454 27.4105 24.0906C27.424 23.9324 27.3587 23.7182 27.2562 23.6039C26.6095 22.8887 25.9448 22.1902 25.2756 21.4976C25.1596 21.3786 24.9883 21.243 24.843 21.2441C22.8895 21.2656 20.9371 21.3096 18.9836 21.3489C18.9002 21.3501 18.8168 21.3584 18.7346 21.3631C18.7301 21.4024 18.7143 21.4476 18.7245 21.456C19.2742 21.9165 19.2134 22.5365 19.1312 23.1636C18.7763 25.8494 18.4237 28.5353 18.0677 31.2199C17.9854 31.8387 17.8277 31.9899 17.2509 31.9946C16.5625 32.0006 15.873 32.0029 15.1847 31.9946C14.6575 31.9875 14.4524 31.7637 14.4513 31.2009C14.4479 29.5242 14.4502 27.8486 14.4502 26.1719C14.3826 26.1719 14.315 26.1731 14.2474 26.1743L14.2496 26.1719ZM33.6789 30.7082C33.7082 30.563 33.7465 30.4226 33.7656 30.2798C34.0687 27.976 34.3807 25.6721 34.6658 23.3659C34.8595 21.7999 34.8516 20.2327 34.6511 18.6619C34.4292 16.9197 34.4314 15.1882 34.7401 13.4389C34.9542 12.224 34.9981 10.9673 35.0184 9.72734C35.033 8.8277 34.7548 7.97923 34.1847 7.26404C33.9774 7.00462 33.7949 6.92371 33.5245 7.17123C33.2068 7.46159 32.8283 7.68649 32.5365 8.00184C31.2702 9.37034 29.9814 10.7198 28.7894 12.1573C27.9017 13.2283 26.8472 13.7507 25.5291 13.8257C23.0472 13.9661 21.2266 12.3323 20.9315 9.72972C20.8334 8.86817 20.6104 8.01969 20.4132 7.17479C20.3783 7.02723 20.1879 6.81303 20.0662 6.81065C18.7909 6.78447 17.5156 6.794 16.3192 6.794C16.1896 7.13434 16.1355 7.41755 15.9902 7.63056C15.4371 8.43381 14.7036 8.98597 13.7889 9.25253C13.5635 9.31798 13.336 9.3763 13.1287 9.43223C13.0273 10.1296 12.9507 10.7924 12.8324 11.4457C12.6082 12.6714 12.3153 13.8757 11.6506 14.9372C11.1402 15.7523 10.444 16.2914 9.52469 16.4794C9.25544 16.5341 8.98393 16.5805 8.6989 16.6329C9.24192 17.3469 9.80972 17.9919 10.2626 18.7154C10.8191 19.6067 11.5357 20.3029 12.3705 20.8562C13.1636 21.3822 14.0029 21.8344 14.8366 22.289C15.1723 22.4722 15.3593 22.6995 15.374 23.1065C15.4585 25.5091 15.5508 27.9105 15.6421 30.3131C15.6466 30.4417 15.6613 30.5702 15.6736 30.732C16.0105 30.732 16.3181 30.7201 16.6256 30.7356C16.8678 30.7487 16.9613 30.6689 16.9963 30.3964C17.2858 28.1354 17.5922 25.8756 17.8975 23.617C17.9854 22.9649 18.0406 22.3354 17.5044 21.8249C17.3444 21.6725 17.2588 21.4298 17.1506 21.2227C16.8554 20.6587 16.8825 20.4611 17.3207 20.0101C17.074 19.8138 16.8014 19.6484 16.5918 19.4187C16.1265 18.9106 15.6218 18.4191 15.2624 17.8324C14.7588 17.0101 14.8828 16.164 15.4731 15.4024C15.9598 14.7753 16.5963 14.3683 17.3083 14.1101C19.2066 13.4223 21.4925 13.6389 22.6698 16.1819C22.7993 16.4616 22.9481 16.7317 23.0675 17.0161C23.4336 17.8812 23.7975 18.7475 24.1456 19.621C24.2527 19.8911 24.3788 20.0101 24.6774 19.9685C25.1641 19.8995 25.6609 19.9161 26.1465 19.8423C27.2111 19.6817 28.296 19.6115 29.2592 18.9962C29.649 18.7475 30.0546 19.0569 30.1312 19.5603C30.1774 19.8602 30.2495 20.1696 30.3757 20.4409C30.859 21.4774 31.6149 22.2307 32.6176 22.6912C32.977 22.8566 33.1381 23.0994 33.0998 23.5182C32.9623 25.0236 32.8373 26.5313 32.7077 28.0379C32.6323 28.9185 32.5568 29.7991 32.479 30.7058H33.6845L33.6789 30.7082ZM4.25111 8.49212C4.32884 9.22516 4.38405 9.9951 4.49783 10.7543C4.66795 11.8812 4.88876 12.9998 5.43854 14.0066C5.83961 14.7408 6.41304 15.2311 7.23771 15.3096C7.62864 15.3465 8.02294 15.3311 8.41613 15.3477C9.7917 15.406 10.6288 14.6539 11.0873 13.3545C11.7463 11.4826 12.0336 9.54171 11.9063 7.55084C11.7993 5.8658 11.0039 4.84835 9.55286 4.65795C8.60089 4.533 7.61286 4.53895 6.65977 4.65676C5.36306 4.81622 4.62852 5.66587 4.40095 7.04032C4.32434 7.50561 4.30181 7.98161 4.25111 8.49331V8.49212ZM21.6682 6.77971C21.8372 7.85904 21.9916 8.81818 22.1369 9.7797C22.3251 11.0161 22.894 11.9372 24.0532 12.3608C25.5156 12.8951 26.8787 12.4631 27.9242 11.2648C29.2074 9.79398 30.5436 8.37432 31.8628 6.93918C32.034 6.75235 32.2402 6.60241 32.4813 6.39059C32.3213 6.35132 32.2323 6.31324 32.1422 6.30967C31.4978 6.29182 30.8489 6.23232 30.2078 6.27635C28.065 6.42391 25.9268 6.62263 23.784 6.77257C23.0731 6.82255 22.3566 6.7809 21.6682 6.7809V6.77971ZM23.0179 20.0791C22.3904 18.6369 21.9781 17.1982 21.1252 15.9808C20.8312 15.5619 20.4538 15.2644 19.9648 15.1514C19.0275 14.9348 18.124 15.0336 17.2621 15.4953C15.9271 16.2117 15.7908 17.0435 16.9366 18.0657C17.7364 18.7797 18.6456 19.358 19.5086 19.9923C19.5739 20.0399 19.664 20.0744 19.744 20.0756C20.8087 20.0815 21.8733 20.0791 23.0168 20.0791H23.0179ZM26.5171 21.1287C27.0556 21.7713 27.5446 22.3806 28.2521 22.7293C28.554 22.878 28.7072 23.1172 28.6757 23.4695C28.5247 25.1509 28.3692 26.8312 28.2194 28.5115C28.154 29.2398 28.0988 29.9692 28.038 30.7023H29.3156C29.6445 28.0307 29.9724 25.377 30.2923 22.7233C30.3047 22.6198 30.2698 22.4865 30.2123 22.3985C29.8214 21.7904 29.4203 21.1894 29.0058 20.5647C28.2442 20.7372 27.415 20.924 26.5171 21.1275V21.1287ZM11.236 21.6369C11.3329 24.6321 11.4309 27.6618 11.5289 30.7106H12.1677C12.509 28.8958 12.8425 27.0954 13.1884 25.2985C13.3258 24.5857 13.4903 23.88 13.6446 23.1577C12.8921 22.6829 12.0415 22.145 11.236 21.6369ZM38.4658 18.0562C37.9994 18.4953 37.996 19.8566 38.4613 20.6408C38.9434 19.9054 38.9457 18.506 38.4658 18.0562ZM14.6248 7.43184C14.6113 7.37472 14.5977 7.3176 14.5831 7.26048C14.0998 7.20098 13.6165 7.14267 13.0701 7.07603C13.1039 7.47587 13.1287 7.78407 13.1658 8.22556C13.7156 7.92568 14.1696 7.67817 14.6237 7.43184H14.6248ZM4.88538 3.98917C4.38067 3.5096 3.91088 3.06097 3.43996 2.61353L3.34871 2.66946C3.63036 3.29778 3.912 3.92491 4.20604 4.57941C4.47079 4.34974 4.66344 4.18195 4.88538 3.98917ZM1.65882 7.25096C1.64304 7.3176 1.62615 7.38423 1.61037 7.45087C2.0734 7.69006 2.53531 7.93045 3.06819 8.20653C3.10649 7.75314 3.13127 7.45444 3.16282 7.07721C2.61417 7.14028 2.13649 7.19503 1.65882 7.25096ZM12.8831 2.6647C12.8527 2.64685 12.8234 2.629 12.7929 2.61115C12.3164 3.06573 11.8398 3.5215 11.3486 3.99036C11.5717 4.18314 11.7644 4.34974 12.0291 4.57822C12.322 3.92253 12.6025 3.29302 12.8831 2.66351V2.6647Z" fill="white"/>
</svg>
