<svg width="48" height="32" viewBox="0 0 48 32" fill="none" xmlns="http://www.w3.org/2000/svg">
<path id="Vector" d="M23.6936 22.8074C23.7115 23.1759 23.7197 23.4603 23.7403 23.7448C23.8999 26.0464 23.5849 28.2883 22.8794 30.4842C22.7405 30.9177 22.4681 31.1033 22.0005 31.087C21.3142 31.0626 20.6279 31.0816 19.9416 31.0802C19.0999 31.0789 18.8578 30.7375 19.1439 29.9708C19.7601 28.3181 19.9251 26.6248 19.5964 24.8908C19.5758 24.7784 19.529 24.6714 19.4038 24.5522C19.3268 24.861 19.2443 25.1699 19.1769 25.4815C19.104 25.8106 19.0435 26.1425 18.983 26.4744C18.6969 28.0336 18.4136 29.5942 18.1275 31.1534C18.001 31.8443 17.818 31.9892 17.0905 31.9906C16.2666 31.9906 15.4428 31.9946 14.619 31.9906C13.8295 31.9852 13.4953 31.5313 13.8914 30.8852C14.4512 29.9735 14.5612 29.0036 14.5571 27.974C14.5516 26.6898 14.5942 25.4056 14.6492 24.1228C14.6987 22.974 14.3246 22.0014 13.5159 21.1859C13.0841 20.751 12.6494 20.3189 12.1983 19.9017C10.7239 18.5402 9.54664 16.9878 8.9456 15.0046C8.58663 15.0547 8.23729 15.1306 7.8852 15.1482C7.16589 15.1848 6.4452 15.1685 5.72726 15.2146C5.13311 15.2525 4.53345 15.3013 3.95305 15.4272C3.07282 15.6169 2.2201 15.6535 1.39488 15.2457C-0.21429 14.4505 -0.485236 12.4565 0.865367 11.2888C1.68921 10.5762 2.35213 9.7472 2.85276 8.79217C3.23649 8.06066 3.60508 7.32237 3.99156 6.56241C3.84302 6.46081 3.72199 6.37411 3.59683 6.29148C2.14445 5.33374 1.67545 3.85176 2.48416 2.32371C2.90502 1.52853 3.53494 0.832236 4.12634 0.1373C4.246 -0.00358387 4.68611 -0.046935 4.84978 0.0587278C5.03821 0.180646 5.23626 0.5735 5.16749 0.749605C4.88967 1.46757 4.84841 2.12457 5.34079 2.75719C5.91018 3.49006 6.70514 3.81247 7.60325 3.91C8.69666 4.02921 9.78457 4.14165 10.7404 4.76344C10.8326 4.82304 11.0705 4.77698 11.1737 4.69705C13.2684 3.0796 15.6739 2.82087 18.1976 3.15411C21.2344 3.55373 24.0085 4.66996 26.5901 6.27251C27.6615 6.93765 28.7136 7.65019 29.9666 7.9577C31.3901 8.3072 32.826 8.21102 34.2591 8.01595C36.0471 7.77211 37.8336 7.62175 39.634 7.94144C42.47 8.44537 44.4202 10.0235 45.3307 12.6909C45.9001 14.3598 46.2508 16.1046 46.6511 17.8277C46.9234 19.0008 47.2494 20.1455 47.8449 21.2048C48.1131 21.6817 48.0278 22.0447 47.6331 22.2411C47.2617 22.4254 46.9399 22.2926 46.6717 21.8375C45.8685 20.4747 45.4889 18.9737 45.2001 17.4376C44.6912 17.8155 44.3666 18.9615 44.5619 19.7418C44.6431 20.0669 44.7393 20.4015 44.903 20.6928C45.8135 22.3184 46.1298 24.0008 45.7708 25.8608C45.4298 27.6313 45.2963 29.4398 45.0543 31.2293C44.969 31.8565 44.7792 31.9933 44.1369 31.996C43.2622 31.9987 42.3861 32.0041 41.5114 31.9946C40.8471 31.9879 40.517 31.5774 40.7989 31.0003C41.4811 29.605 41.3642 28.1014 41.4866 26.6329C41.51 26.3606 41.3669 26.0355 41.2047 25.7985C40.8993 25.3528 40.5252 24.9518 40.1222 24.4641C40.0741 25.09 40.0769 25.6549 39.9778 26.2021C39.733 27.5419 39.4442 28.8749 39.1677 30.2092C39.0701 30.6833 38.7524 30.8757 38.2765 30.8703C37.5902 30.8621 36.9039 30.8743 36.2162 30.8676C35.4254 30.8594 35.1902 30.5059 35.4048 29.7649C36.1516 27.1748 36.2492 24.5427 35.8531 21.8876C35.838 21.79 35.7899 21.6979 35.7073 21.4595C35.0224 21.7332 34.2948 21.9079 33.6966 22.2818C30.6928 24.1553 27.5556 24.1187 24.3194 23.0404C24.1433 22.9821 23.9714 22.9158 23.6963 22.8169L23.6936 22.8074ZM10.2068 14.5386C10.5823 15.8309 11.2081 16.9661 12.1282 17.9266C12.8227 18.6513 13.5627 19.3327 14.2779 20.0398C15.2392 20.9894 15.9723 22.0948 15.9558 23.4644C15.9283 25.8608 16.0438 28.2693 15.6464 30.6738C15.8829 30.6738 16.1745 30.6535 16.4633 30.6793C16.7824 30.7077 16.869 30.5519 16.9186 30.2783C17.2253 28.5687 17.5361 26.8591 17.8621 25.1523C18.0807 24.0103 18.5539 22.9916 19.5139 22.2628C21.0749 21.0775 22.7556 21.0369 24.5656 21.6844C27.5075 22.7369 30.3668 22.718 33.1519 21.0545C35.7073 19.5278 38.3893 20.0696 40.2612 22.359C40.9708 23.226 41.6406 24.1255 42.3118 25.0222C42.712 25.556 42.8963 26.1737 42.8455 26.8348C42.7478 28.1068 42.6227 29.3761 42.5099 30.6413H43.7752C43.9884 29.0198 44.2181 27.4335 44.3982 25.8405C44.4904 25.025 44.5867 24.1905 44.5 23.3831C44.4354 22.7857 44.1218 22.1978 43.844 21.6424C43.0311 20.0182 42.9486 18.4197 43.8508 16.7995C44.6444 15.3717 44.5839 13.9602 43.8371 12.4998C43.0023 10.8702 41.7575 9.81493 39.9641 9.36654C38.1431 8.91273 36.3208 9.05767 34.4984 9.32725C31.7078 9.74042 29.0712 9.42344 26.6561 7.86152C25.8268 7.32508 24.9658 6.82386 24.0787 6.38902C21.4559 5.10752 18.723 4.21751 15.7371 4.40581C14.8693 4.45999 14.0248 4.62932 13.1446 5.08313C13.3619 5.11564 13.4637 5.12648 13.5613 5.1468C14.3274 5.30123 14.5131 5.59519 14.26 6.32806C14.1183 6.74123 13.956 7.1571 13.7319 7.53099C12.9988 8.75695 11.8861 9.28662 10.4502 9.18231C10.0156 9.15115 9.78045 8.93441 9.7942 8.50498C9.80933 8.07827 10.0569 7.86423 10.4915 7.86694C10.629 7.86694 10.7666 7.87371 10.9027 7.871C11.8394 7.86016 12.4239 7.37249 12.6013 6.44591C11.5877 6.13299 10.7996 6.44862 10.1518 7.2438C9.84921 7.61633 9.49025 7.64478 9.16979 7.38333C8.8397 7.11511 8.81632 6.79541 9.12302 6.40798C9.30595 6.17633 9.51913 5.96907 9.82033 5.63989C9.19592 5.51662 8.68979 5.36897 8.17403 5.32155C6.66251 5.18202 5.26514 4.82033 4.27763 3.56863C4.09471 3.33699 3.9448 3.08095 3.77288 2.82628C3.27637 3.58353 3.34376 4.3584 3.99706 4.89755C4.31889 5.16441 4.70262 5.38522 5.0946 5.53558C5.58422 5.72388 6.11236 5.81735 6.62262 5.95282C7.01047 6.05577 7.20852 6.30096 7.14938 6.69923C7.09162 7.09614 6.84405 7.29121 6.43145 7.25328C6.26228 7.23702 6.0821 7.22619 5.92806 7.16388C5.40268 6.9512 5.15236 7.16659 4.93505 7.64207C4.11397 9.43698 3.16772 11.152 1.59018 12.4443C1.23396 12.7356 1.24359 13.2463 1.51591 13.6459C1.88451 14.1864 2.55843 14.4194 3.35477 14.1796C4.32302 13.8884 5.3009 13.7922 6.30079 13.8667C7.98423 13.9927 9.48612 13.5565 10.8133 12.5229C11.2493 12.1829 11.6551 12.2059 11.9026 12.5269C12.1612 12.8602 12.0814 13.2246 11.6276 13.5646C11.1792 13.9006 10.7033 14.1999 10.2041 14.5413L10.2068 14.5386ZM22.2577 22.4376C21.6883 22.6218 21.1904 22.76 20.7159 22.955C20.6128 22.997 20.5096 23.2761 20.5536 23.3912C21.3115 25.3568 21.1712 27.3265 20.6224 29.3043C20.5825 29.4492 20.5646 29.5983 20.5316 29.7703C20.8136 29.7703 21.0199 29.7568 21.2234 29.773C21.4903 29.7947 21.603 29.6999 21.6814 29.4316C22.3389 27.1992 22.5438 24.9342 22.2563 22.4376H22.2577ZM36.7581 29.4682C37.824 29.643 37.89 29.6037 38.1252 28.6933C38.5777 26.9337 38.7799 25.1496 38.6644 23.333C38.608 22.4498 38.1431 21.9431 37.2395 21.8226C37.5517 24.3842 37.5104 26.9269 36.7581 29.4682Z" fill="white"/>
</svg>
