<svg width="41" height="38" viewBox="0 0 41 38" fill="none" xmlns="http://www.w3.org/2000/svg">
<path id="Vector" d="M34.8456 29.1638C34.6375 30.1161 34.4424 30.9989 34.2539 31.8818C33.9548 33.2902 33.6609 34.6987 33.363 36.1071C33.2499 36.6417 33.0613 36.7908 32.4891 36.7934C31.7596 36.7959 31.0287 36.7972 30.2992 36.7934C29.5774 36.7895 29.3486 36.4811 29.5189 35.7794C29.9585 33.9778 30.3694 32.1684 30.835 30.3731C31.0639 29.489 30.8545 28.7603 30.3421 28.0291C29.8921 27.3878 29.4604 27.1334 28.5982 27.312C26.7958 27.6847 24.953 27.5806 23.122 27.4084C22.8034 27.3788 22.4848 27.3621 22.1506 27.339C22.2754 28.3259 22.4328 29.2551 22.5043 30.1919C22.6551 32.1786 22.6525 34.159 22.0842 36.102C21.9412 36.5929 21.6798 36.8204 21.1492 36.8024C20.3234 36.7754 19.495 36.7985 18.668 36.7947C17.9215 36.7908 17.6588 36.4169 17.9514 35.7473C18.3637 34.8079 18.7759 33.8891 18.7291 32.8122C18.6576 31.202 18.3858 29.6406 17.7667 28.1088C17.7134 28.4532 17.6523 28.7963 17.6094 29.142C17.2817 31.779 16.9605 34.4173 16.6328 37.0543C16.5677 37.5799 16.3727 37.7508 15.8434 37.7546C14.9188 37.7598 13.9941 37.7623 13.0695 37.7546C12.3998 37.7495 12.0929 37.3331 12.4063 36.742C13.0461 35.5353 13.1944 34.2875 13.0682 32.9407C12.933 31.5065 12.9369 30.0595 12.9174 28.6177C12.9031 27.5716 12.548 26.6926 11.8302 25.9241C10.968 25.0001 10.1955 23.9991 9.89382 22.7487C9.68834 21.8954 9.5661 21.0215 9.43606 20.1528C9.08494 17.8114 8.78063 15.4609 7.87031 13.2442C7.71556 12.8664 7.5465 12.5579 7.11475 12.3845C6.61538 12.1853 6.43072 11.8306 6.26296 11.1032C5.2343 11.2086 4.19524 11.3114 3.15748 11.4206C2.75824 11.463 2.3499 11.5967 1.96237 11.5491C0.172947 11.3294 -0.582615 9.49172 0.503261 7.99074C1.41748 6.7275 2.41882 5.52337 3.31874 4.24985C4.15233 3.07014 5.10816 2.14231 6.6609 2.05107C6.77533 2.04464 6.90018 1.90586 6.98731 1.80176C8.65839 -0.209397 11.717 -1.04599 13.9681 2.02023C14.1866 2.31837 14.275 2.6255 14.0214 2.94421C13.7861 3.24106 13.4974 3.25648 13.1514 3.12797C12.5155 2.89152 11.851 2.81955 11.2008 3.04187C10.8965 3.14596 10.6312 3.36314 10.2879 3.5649C10.9849 4.4529 11.6169 5.25865 12.2515 6.06182C13.3491 7.451 14.5 8.80291 15.5326 10.2384C16.2842 11.2844 17.2986 11.7985 18.4937 12.0799C20.2831 12.5014 22.1011 12.5014 23.9101 12.3099C25.9687 12.0915 28.0143 11.7445 30.0703 11.4965C32.3994 11.215 34.4983 11.8537 36.3814 13.2005C36.6701 13.4074 36.9172 13.4691 37.2163 13.3059C38.0369 12.8586 38.8692 12.4307 39.6689 11.9488C40.4115 11.5016 40.8523 11.6879 40.9642 12.5477C41.1515 13.9947 40.5884 15.1898 39.6494 16.2294C39.3386 16.5725 39.2723 16.8501 39.4062 17.2832C39.89 18.8459 39.7704 20.3983 39.085 21.8735C38.561 23.0006 38.5102 24.1199 38.8653 25.2829C38.9771 25.6504 39.0759 26.0231 39.2177 26.379C39.8471 27.9507 39.8939 29.5301 39.4908 31.1776C39.0044 33.1656 38.6416 35.1832 38.228 37.1879C38.0902 37.8561 37.9341 37.9924 37.254 37.9949C36.4425 37.9988 35.631 38.0052 34.8209 37.9924C34.1836 37.9821 33.947 37.6647 34.0939 37.0517C34.5504 35.1382 34.9964 33.2234 35.4659 31.3138C35.6648 30.5042 35.4061 29.8449 34.8469 29.1677L34.8456 29.1638ZM39.5168 13.5038C38.7664 13.8919 38.0564 14.2671 37.3372 14.6256C36.8704 14.857 36.4776 14.7747 36.0524 14.429C34.4138 13.099 32.5165 12.4924 30.4006 12.7314C28.3264 12.9653 26.2652 13.3097 24.1923 13.5475C22.3027 13.7633 20.4028 13.8006 18.5288 13.4048C17.1516 13.1144 15.8512 12.6582 14.937 11.4836C13.6222 9.795 12.2918 8.11796 10.9498 6.44992C10.215 5.53622 9.51408 4.57884 8.67139 3.76923C7.55431 2.69618 6.04838 2.87867 5.06394 4.08793C4.61659 4.63666 4.19914 5.20981 3.76999 5.77268C3.04694 6.7185 2.32259 7.66304 1.60474 8.61401C1.26923 9.05865 1.21591 9.63822 1.4682 10.0045C1.79461 10.4748 2.23936 10.345 2.69582 10.2551C3.32784 10.1317 3.96636 10.0392 4.60488 9.95821C5.03793 9.90295 5.47749 9.88624 5.91444 9.86183C6.26946 9.84126 6.46063 9.68063 6.49444 9.31695C6.54255 8.79135 6.62188 8.26832 6.6778 7.744C6.71812 7.36105 6.92489 7.16443 7.31242 7.16443C7.70776 7.16443 7.90933 7.3906 7.93924 7.75814C7.95745 7.97917 7.93924 8.20792 7.90803 8.42896C7.79749 9.20515 7.65444 9.9762 7.56081 10.7537C7.50619 11.2009 7.71296 11.3988 8.16422 11.4386C8.6857 11.4836 8.93538 11.1251 9.11485 10.7498C9.73516 9.44931 9.69875 8.14624 9.00171 6.88171C8.79754 6.51161 8.79494 6.21218 9.13435 5.95259C9.43086 5.72642 9.80148 5.80095 10.0525 6.17234C10.2644 6.48847 10.4582 6.83416 10.5753 7.1927C11.2515 9.26169 10.6728 11.2279 8.99 12.6209C10.1058 15.2386 10.4543 18.0375 10.7898 20.83C10.9862 22.4685 11.5727 23.886 12.7483 25.0618C12.9408 25.2546 13.0929 25.4859 13.2594 25.7031C13.8537 26.4831 14.1411 27.3673 14.1762 28.3375C14.2399 30.0994 14.301 31.8612 14.3726 33.6231C14.4103 34.5522 14.4675 35.4826 13.9499 36.3269C13.9278 36.3629 13.9382 36.4168 13.933 36.4747H15.4337C15.6431 34.7771 15.846 33.1116 16.0527 31.4449C16.2699 29.6971 16.4819 27.9494 16.7134 26.2043C16.7888 25.6363 17.0021 25.4923 17.5704 25.563C18.101 25.6286 18.6289 25.7121 19.1582 25.7802C22.1376 26.1606 25.1221 26.4304 28.1261 26.122C29.4513 25.9858 30.7348 25.6761 31.8584 25.0426C31.7089 24.4013 31.5411 23.805 31.4371 23.1985C31.3682 22.7962 31.6152 22.5636 32.0197 22.5302C32.4059 22.4981 32.6556 22.7577 32.6855 23.1869C32.6985 23.3784 32.7063 23.5711 32.7362 23.76C32.9235 24.9577 33.657 25.8547 34.4216 26.7337C34.96 27.3531 35.5192 27.9571 36.0225 28.6048C36.7325 29.5172 36.9614 30.5402 36.6857 31.6839C36.2865 33.3455 35.9314 35.0174 35.5465 36.7291C35.9145 36.7291 36.2865 36.715 36.6558 36.733C36.9406 36.7471 37.0368 36.6379 37.0914 36.3603C37.4257 34.682 37.8054 33.0127 38.1279 31.3318C38.3126 30.3654 38.6949 29.408 38.4374 28.3979C38.2527 27.6706 38.0655 26.9406 37.8236 26.23C37.2384 24.5092 37.1877 22.8425 37.9992 21.1475C38.5922 19.9086 38.6585 18.5619 38.1435 17.2678C37.8847 16.6175 37.964 16.1909 38.4777 15.7025C39.0876 15.1243 39.4375 14.3673 39.5142 13.5038H39.5168ZM31.0066 26.7556C31.0417 26.8314 31.0574 26.9136 31.1068 26.9663C32.2317 28.2026 32.4098 29.593 31.9586 31.1698C31.5502 32.5937 31.2875 34.0587 30.9559 35.5276H32.1783C32.7076 33.0589 33.2356 30.6095 33.7532 28.1563C33.7766 28.0471 33.7454 27.8916 33.6778 27.8042C33.2564 27.2619 32.8169 26.7324 32.3734 26.1863C31.9221 26.3752 31.4787 26.5602 31.0092 26.7556H31.0066ZM19.482 35.5494C19.8046 35.5494 20.0985 35.5237 20.3859 35.5558C20.7617 35.5982 20.88 35.4402 20.9463 35.0919C21.434 32.5218 21.2754 29.9657 20.8046 27.4161C20.7877 27.3236 20.6954 27.1848 20.6212 27.1732C20.0451 27.0846 19.4651 27.0216 18.8136 26.9419C18.9059 27.2054 18.9632 27.3519 19.0087 27.5035C19.8006 30.1315 20.5549 32.7621 19.482 35.5507V35.5494ZM8.48413 2.08577C8.79363 2.28496 9.08884 2.47643 9.42045 2.68976C10.0889 1.94441 10.8978 1.58073 11.9485 1.87116C11.1696 0.988304 9.75467 1.08212 8.48283 2.08577H8.48413Z" fill="white"/>
</svg>
