<svg width="32" height="29" viewBox="0 0 32 29" fill="none" xmlns="http://www.w3.org/2000/svg">
<g id="Group 36697">
<path id="Vector" d="M0.00163172 22.4706C0.00163172 21.8483 0.00163172 21.2252 0.00163172 20.6029C0.0432405 20.3526 0.0856651 20.1031 0.125642 19.8528C0.344292 18.4955 0.79383 17.2161 1.64151 16.0781C2.30398 15.1888 3.12637 14.4713 4.28978 14.19C4.65855 14.1007 5.05098 14.0712 5.43362 14.0584C6.06835 14.0372 6.70391 14.0531 7.37699 14.0531C7.33049 13.9881 7.31907 13.9631 7.29867 13.9465C6.36533 13.1729 5.7567 12.202 5.33653 11.1253C4.66997 9.41713 4.52067 7.65454 4.78501 5.86321C4.94247 4.79552 5.25984 3.76564 5.8032 2.80457C5.96474 2.5195 6.19155 2.4333 6.44691 2.54824C6.71533 2.66922 6.78386 2.90136 6.62966 3.19626C5.48094 5.39364 5.33898 7.68554 5.94434 10.0266C6.25845 11.2417 6.83037 12.3533 7.83469 13.2289C9.07806 14.3132 10.6421 14.3291 11.9213 13.2811C12.4941 12.8115 12.9273 12.2414 13.2479 11.6054C14.3648 9.38688 14.4896 7.08742 13.8296 4.74184C13.5049 3.58643 12.9485 2.53462 11.998 1.69756C11.0459 0.85899 9.8727 0.617777 8.80964 1.0934C8.38784 1.28244 8.02723 1.59095 7.64704 1.85484C7.40391 2.02422 7.14774 2.03103 6.9658 1.84804C6.78876 1.66959 6.79365 1.43972 6.99762 1.24236C7.14529 1.09945 7.30683 0.969388 7.47 0.841598C8.03376 0.399249 8.69787 0.155768 9.40603 0H21.6814C22.2199 0.207942 22.8024 0.351611 23.2879 0.636681C24.4089 1.2968 25.0885 2.30702 25.5845 3.42235C26.4403 5.34751 26.5921 7.34905 26.2339 9.38613C25.9875 10.7873 25.4646 12.0962 24.5035 13.2251C24.2677 13.5019 23.9936 13.7514 23.7137 14.0365C23.8337 14.0425 23.9308 14.0508 24.027 14.0508C24.6683 14.0523 25.3096 14.0493 25.95 14.0523C26.6875 14.0561 27.3737 14.23 28.0027 14.5938C28.8357 15.0754 29.4713 15.734 29.9306 16.5235C31.5705 19.3439 31.6512 22.271 30.5743 25.2676C30.5457 25.3462 30.4943 25.4211 30.4397 25.4876C30.3018 25.6555 30.1239 25.7258 29.9053 25.6328C29.6915 25.5421 29.6148 25.372 29.654 25.167C29.6801 25.0294 29.7364 24.8963 29.7821 24.7617C30.5808 22.4479 30.5653 20.1469 29.6132 17.8755C29.1833 16.8501 28.5469 15.951 27.5222 15.3318C26.761 14.872 25.928 14.9023 25.0624 14.9514C27.0898 16.7889 27.7539 19.0762 27.7449 21.5625C27.7359 24.0419 27.0571 26.3202 25.0175 28.1304C25.2174 28.1304 25.3707 28.1213 25.5225 28.1319C26.947 28.2295 27.9774 27.6155 28.7786 26.5871C28.8504 26.4956 28.9132 26.3973 28.994 26.3134C29.1637 26.1357 29.3701 26.0941 29.5944 26.2196C29.8058 26.3383 29.8686 26.5735 29.7511 26.7882C29.7103 26.8631 29.6573 26.9334 29.6042 27.0022C28.6097 28.2922 27.3427 29.0068 25.5462 28.9954C18.8602 28.9531 12.1742 28.9682 5.48828 28.9871C4.13477 28.9909 3.06844 28.5055 2.18732 27.6041C1.14139 26.5342 0.575996 25.2442 0.252916 23.8528C0.146855 23.3961 0.0832176 22.9311 0 22.4691L0.00163172 22.4706ZM10.4756 21.7651C10.4511 22.3814 10.5686 23.2479 10.8101 24.0986C11.1487 25.2903 11.6823 26.3905 12.6589 27.2586C13.934 28.392 15.4883 28.414 16.8091 27.3289C17.3884 26.8533 17.8208 26.2703 18.1382 25.6215C19.3057 23.2313 19.3775 20.7814 18.5241 18.3019C18.148 17.2085 17.545 16.2308 16.5432 15.514C15.4589 14.7382 14.1853 14.7268 13.0725 15.4686C12.5275 15.8316 12.1049 16.3004 11.7606 16.8297C10.8273 18.2664 10.4748 19.8407 10.4756 21.7651ZM9.5382 21.5148L9.62142 21.5012C9.48925 20.6755 9.40848 19.8392 9.21267 19.0271C8.9206 17.8165 8.36418 16.7102 7.39331 15.8233C6.10344 14.6452 4.48804 14.624 3.15248 15.7597C2.61319 16.218 2.20445 16.7692 1.89605 17.3794C0.809332 19.5292 0.667372 21.7628 1.26213 24.0479C1.5844 25.2842 2.1506 26.4124 3.16879 27.3009C4.40156 28.3777 5.98351 28.42 7.21708 27.3523C7.6911 26.9417 8.10229 26.4374 8.42374 25.9134C9.25755 24.5568 9.54391 23.0634 9.5382 21.5156V21.5148ZM16.2356 14.0523C16.7455 14.0523 17.1787 14.0486 17.6119 14.0531C18.2793 14.0599 18.8643 13.8505 19.3905 13.4837C20.2015 12.9181 20.7391 12.1597 21.1348 11.3105C21.9988 9.45569 22.1359 7.52523 21.7712 5.55394C21.5525 4.37132 21.1177 3.25826 20.3181 2.30097C19.0446 0.775813 17.9611 0.756153 16.2772 0.894529C19.9078 3.83748 19.8466 11.0958 16.2356 14.0531V14.0523ZM17.3566 14.9794C19.3513 16.7858 20.0187 19.0747 20.0097 21.5587C20.0016 24.0351 19.3261 26.3179 17.2774 28.1319C17.6952 28.1319 18.0598 28.1266 18.4245 28.1327C19.2583 28.1463 19.973 27.8741 20.5914 27.3674C21.3567 26.7413 21.8617 25.9512 22.2256 25.0808C22.8383 23.6139 23.0145 22.091 22.8604 20.5296C22.7241 19.1511 22.3219 17.8566 21.5174 16.6754C20.5384 15.2388 19.1498 14.68 17.3566 14.9794ZM17.3672 10.9309C17.3965 10.8871 17.4145 10.8667 17.4243 10.8432C17.461 10.7555 17.4985 10.6686 17.5295 10.5793C18.0582 9.08367 18.1602 7.55019 17.9424 6.00159C17.7661 4.74713 17.3655 3.55241 16.5685 2.5074C15.2737 0.808328 14.1551 0.753884 12.4549 0.885455C14.4562 2.68207 15.135 4.95658 15.1374 7.44659C15.1407 9.93358 14.4652 12.2081 12.4329 14.0531C12.8587 14.0531 13.2308 14.044 13.602 14.0554C14.4089 14.0796 15.1179 13.8293 15.6808 13.3189C16.1124 12.9279 16.4648 12.4591 16.832 12.0107C16.8842 11.9472 16.8613 11.7786 16.8051 11.7C16.6052 11.4164 16.3718 11.1533 16.1581 10.878C15.9623 10.6247 15.9867 10.3895 16.2127 10.2307C16.4404 10.0712 16.6851 10.1151 16.8981 10.3623C17.0555 10.5446 17.204 10.7343 17.3647 10.9317L17.3672 10.9309ZM21.187 14.9665C23.655 17.2985 24.0597 20.1696 23.7366 23.2509C24.0572 23.1027 24.3795 22.9455 24.7099 22.8048C24.9457 22.7042 25.197 22.7889 25.3096 22.9863C25.4205 23.1799 25.3504 23.4241 25.1374 23.5534C25.0362 23.6147 24.9245 23.6623 24.816 23.7145C24.4692 23.8808 24.1217 24.0464 23.7602 24.2188C23.9405 24.4517 24.1013 24.646 24.2457 24.851C24.4007 25.071 24.3575 25.3183 24.1576 25.4536C23.9569 25.5897 23.6876 25.5534 23.5032 25.3591C23.4176 25.2691 23.3433 25.1693 23.2381 25.043C22.7714 26.2264 22.1399 27.2722 21.0736 28.1312C21.5493 28.1312 21.9523 28.1274 22.3545 28.1319C23.1655 28.1417 23.863 27.8778 24.4709 27.3916C25.0575 26.9221 25.4972 26.3474 25.8342 25.7069C26.8116 23.8483 26.9927 21.8861 26.6802 19.8672C26.6671 19.7847 26.5505 19.6774 26.4591 19.6517C26.1695 19.5685 25.866 19.5269 25.5723 19.4543C25.299 19.3862 25.1684 19.1813 25.2198 18.9394C25.268 18.7155 25.4638 18.5862 25.7436 18.6188C25.9508 18.643 26.1548 18.6929 26.3873 18.7367C26.38 18.6694 26.3832 18.6233 26.3694 18.5832C26.0863 17.7514 25.7028 16.9666 25.1129 16.2785C24.5614 15.635 23.9071 15.0996 23.0056 14.9817C22.4092 14.9038 21.7924 14.9673 21.1862 14.9673L21.187 14.9665ZM22.1587 3.62348C22.2876 3.40193 22.3814 3.23709 22.4785 3.07452C22.6499 2.78567 22.893 2.68812 23.1475 2.80306C23.4111 2.92329 23.4682 3.17509 23.2944 3.48511C23.0839 3.86092 22.8612 4.23068 22.6621 4.61178C22.6058 4.71991 22.5862 4.86206 22.6017 4.98229C22.6768 5.55092 22.8032 6.11501 22.8514 6.68515C23.0048 8.52109 22.6964 10.2875 21.8389 11.9586C21.4391 12.7366 20.9007 13.4255 20.1395 14.0531C20.4699 14.0531 20.7195 14.044 20.9676 14.0546C21.9034 14.0962 22.667 13.7499 23.3213 13.1624C23.9593 12.5892 24.4056 11.8958 24.736 11.1381C25.4997 9.38991 25.6424 7.57665 25.3275 5.73013C25.1097 4.45147 24.6397 3.25826 23.7749 2.21704C22.8628 1.11835 21.6716 0.674488 20.159 0.885455C21.0818 1.62346 21.6847 2.54597 22.1579 3.62273L22.1587 3.62348ZM12.2934 28.1145C11.1275 27.186 10.4838 26.0094 10.0024 24.6672C9.53575 26.0238 8.86756 27.1822 7.73434 28.1145H12.2934ZM7.74576 14.9454C8.89286 15.8875 9.53657 17.0422 10.0081 18.3859C10.4658 17.0369 11.1332 15.8875 12.255 14.9454H7.74576Z" fill="white"/>
<path id="Vector_2" d="M13.2455 7.04288C13.2145 8.59451 13.0367 9.71513 12.517 10.77C12.2216 11.3688 11.8374 11.9087 11.2597 12.308C10.3827 12.9137 9.35144 12.9068 8.50866 12.2611C8.21495 12.0358 7.96774 11.7522 7.73114 11.4717C7.53452 11.2388 7.5949 10.9719 7.8266 10.8282C8.04933 10.6898 8.29001 10.7488 8.48908 10.9756C8.66122 11.1722 8.82521 11.3832 9.02999 11.5473C9.61414 12.0153 10.2579 12.0267 10.8029 11.5208C11.1406 11.2078 11.4621 10.8327 11.6432 10.4289C12.5618 8.38203 12.5618 6.32378 11.5445 4.30183C11.365 3.94568 11.0696 3.61524 10.7531 3.34983C10.2048 2.89009 9.58233 2.92336 9.0202 3.37176C8.47847 3.80428 8.16518 4.37366 7.94327 4.98615C7.41541 6.44401 7.39012 7.92304 7.77112 9.41342C7.78744 9.47694 7.8111 9.54045 7.81844 9.60548C7.84781 9.87165 7.70748 10.0622 7.4513 10.1121C7.22939 10.1552 6.97647 10.0221 6.92181 9.78318C6.80514 9.27807 6.67134 8.77069 6.6281 8.25802C6.50491 6.81225 6.66808 5.39825 7.34035 4.06591C7.62345 3.5056 7.9963 3.00124 8.53476 2.6209C9.43221 1.988 10.4626 2.00085 11.3372 2.66022C12.1613 3.28178 12.6173 4.12564 12.867 5.04966C13.0783 5.83001 13.1721 6.63758 13.2463 7.04288H13.2455Z" fill="white"/>
<path id="Vector_3" d="M9.92747 5.91613C9.27886 6.5203 9.35718 8.62618 9.93644 8.97931C10.1983 8.6708 10.2734 8.30331 10.324 7.92901C10.3476 7.75131 10.3452 7.57059 10.3737 7.39441C10.4121 7.15471 10.5842 7.0239 10.8372 7.02919C11.0933 7.03448 11.2785 7.18798 11.2818 7.41709C11.2908 8.14149 11.1904 8.85379 10.7066 9.45493C10.2457 10.0288 9.48854 10.0228 9.08877 9.40578C8.84564 9.02921 8.6841 8.58233 8.59925 8.1483C8.45729 7.41936 8.51359 6.68363 8.79995 5.97814C8.83911 5.88135 8.88399 5.78532 8.93946 5.69609C9.1728 5.31801 9.47304 5.00119 9.98947 5.05109C10.5165 5.10175 10.7882 5.46698 10.975 5.8821C11.0835 6.12256 10.971 6.35772 10.7319 6.44771C10.4708 6.54601 10.2791 6.453 10.1388 6.24355C10.0702 6.14146 10.0058 6.03787 9.92665 5.91538L9.92747 5.91613Z" fill="white"/>
<path id="Vector_4" d="M11.4573 21.5164C11.4614 20.3739 11.6515 19.2646 12.1638 18.2181C12.4657 17.6018 12.8614 17.0476 13.466 16.6438C14.3063 16.0827 15.2967 16.0895 16.1257 16.6703C16.886 17.2033 17.3307 17.9421 17.6146 18.7603C18.3211 20.7951 18.2869 22.8185 17.3951 24.805C17.1063 25.4484 16.6829 26.014 16.0563 26.4208C15.2037 26.9744 14.2427 26.9683 13.4309 26.3664C13.1102 26.129 12.8443 25.8212 12.5873 25.5203C12.3988 25.3002 12.4608 25.0446 12.6803 24.9025C12.8949 24.7634 13.1543 24.8208 13.3485 25.0326C13.5516 25.2541 13.7433 25.493 13.9848 25.6738C14.4931 26.0549 15.0626 26.0428 15.579 25.6715C16.0938 25.3017 16.4185 24.8004 16.6347 24.2454C17.4017 22.2749 17.3911 20.3157 16.4292 18.4011C16.2497 18.0442 15.9609 17.7122 15.6508 17.4385C15.0977 16.95 14.4458 16.9742 13.8739 17.4476C13.1935 18.0109 12.8639 18.7595 12.6468 19.552C12.2846 20.873 12.3001 22.1992 12.6493 23.5225C12.7398 23.8658 12.6354 24.0995 12.3605 24.163C12.0676 24.2303 11.8269 24.0934 11.7592 23.7501C11.614 23.0114 11.503 22.2673 11.3782 21.5255L11.4565 21.5164H11.4573Z" fill="white"/>
<path id="Vector_5" d="M14.7999 19.998C14.1929 20.4063 14.188 22.6256 14.795 23.0453C15.1034 22.6914 15.1588 22.2649 15.2086 21.8392C15.2225 21.7175 15.2053 21.5927 15.2257 21.4725C15.2682 21.2313 15.4664 21.0861 15.7177 21.102C15.9828 21.1194 16.1403 21.2653 16.1436 21.5005C16.1517 22.1863 16.0546 22.8578 15.6345 23.4445C15.1621 24.1047 14.3911 24.1077 13.9195 23.4445C13.4463 22.7799 13.3338 22.0169 13.417 21.2502C13.4716 20.7451 13.6438 20.2445 13.82 19.7598C13.9285 19.4626 14.1863 19.2343 14.5323 19.145C15.1099 18.9968 15.9004 19.5624 15.8645 20.1212C15.8556 20.2634 15.7006 20.4471 15.5578 20.5197C15.3693 20.615 15.1605 20.5311 15.0316 20.3511C14.95 20.2369 14.8774 20.1175 14.7999 19.998Z" fill="white"/>
<path id="Vector_6" d="M2.78336 21.5285C2.89595 22.2053 2.99956 22.8835 3.12439 23.5588C3.1815 23.8673 3.09583 24.0881 2.84373 24.1584C2.55492 24.2393 2.28242 24.0987 2.22531 23.7697C2.09722 23.028 1.94384 22.2824 1.92181 21.5353C1.88836 20.3882 2.08498 19.2563 2.63814 18.2158C2.87718 17.7659 3.17987 17.322 3.54945 16.9591C4.57988 15.9504 5.98397 15.9904 7.00053 17.0128C7.72501 17.7409 8.11173 18.6271 8.32712 19.5791C8.73097 21.3637 8.63877 23.1172 7.8531 24.8102C7.57245 25.4144 7.18165 25.9535 6.60892 26.3581C5.71229 26.991 4.67534 26.9811 3.81134 26.3104C3.54211 26.101 3.3104 25.8431 3.09339 25.5845C2.85923 25.3062 2.89513 25.0544 3.14723 24.8972C3.37975 24.7527 3.63022 24.8268 3.84805 25.0847C4.00388 25.2692 4.16298 25.459 4.35307 25.611C4.92988 26.073 5.56788 26.0624 6.1398 25.5936C6.73946 25.1013 7.06825 24.4556 7.27955 23.7584C7.83434 21.9293 7.78702 20.1251 6.88713 18.3927C6.69051 18.0147 6.37314 17.6631 6.03129 17.3833C5.50425 16.9515 4.9152 16.9946 4.37428 17.4158C3.835 17.8362 3.52661 18.3943 3.29246 18.9946C2.97509 19.8098 2.8421 20.6529 2.8576 21.5187L2.78336 21.5285Z" fill="white"/>
<path id="Vector_7" d="M5.25333 19.985C4.64144 20.4758 4.66265 22.6285 5.30718 23.0845C5.41813 22.7737 5.53888 22.4924 5.61476 22.2013C5.6686 21.9934 5.66616 21.7718 5.68166 21.5563C5.70287 21.275 5.87909 21.0996 6.15077 21.1011C6.42898 21.1019 6.60194 21.2713 6.60439 21.5616C6.60929 22.1817 6.50486 22.782 6.1728 23.3303C5.96965 23.666 5.689 23.9276 5.24517 23.9314C4.78666 23.9352 4.49295 23.6698 4.29225 23.3212C3.89085 22.6255 3.77826 21.8686 3.88595 21.1011C3.9504 20.6421 4.09236 20.1801 4.28654 19.7537C4.50927 19.2652 4.91149 19.0769 5.36592 19.1283C5.76161 19.1729 6.22502 19.5964 6.33026 20.0206C6.38574 20.2429 6.28784 20.4153 6.06919 20.5075C5.84972 20.5998 5.64821 20.5499 5.50461 20.3646C5.41242 20.2452 5.33655 20.1143 5.25088 19.9843L5.25333 19.985Z" fill="white"/>
</g>
</svg>
