<svg width="29" height="21" viewBox="0 0 29 21" fill="none" xmlns="http://www.w3.org/2000/svg">
<g id="Group 36696">
<path id="Vector" d="M29 18.5398C28.8305 18.9228 28.7132 19.3405 28.4817 19.6819C27.9777 20.4252 27.2271 20.7681 26.3342 20.793C25.853 20.8066 25.3717 20.7953 24.8897 20.7953C17.5173 20.7953 10.145 20.7953 2.77336 20.7953C1.36063 20.7953 0.29371 19.9214 0.0318977 18.5504C0.00390047 18.4039 0.00163043 18.2513 0.000873742 18.101C0.000117059 12.9654 -0.000639624 7.82981 0.000873742 2.69498C0.00163043 1.1858 1.17298 0.00369006 2.68937 0.00293472C10.5619 -0.00159735 18.4344 -8.66597e-05 26.3062 0.00217937C27.6077 0.00217937 28.6602 0.861761 28.9463 2.12998C28.9561 2.17379 28.9818 2.21458 29 2.25613V18.5398ZM14.477 19.0776C18.3557 19.0776 22.2353 19.0776 26.114 19.0776C26.9501 19.0776 27.3012 18.7279 27.3012 17.8963C27.3012 12.9027 27.3012 7.90988 27.3012 2.9163C27.3012 2.06125 26.9585 1.71832 26.1027 1.71832C18.3633 1.71832 10.6247 1.71832 2.88535 1.71832C2.04695 1.71832 1.69887 2.06502 1.69887 2.89892C1.69887 7.89251 1.69887 12.8853 1.69887 17.8789C1.69887 18.734 2.04165 19.0776 2.8967 19.0776C6.75654 19.0776 10.6171 19.0776 14.477 19.0776Z" fill="black"/>
<path id="Vector_2" d="M14.5034 5.35444C11.522 5.35444 8.53994 5.35746 5.55861 5.3484C5.35128 5.3484 5.12276 5.29552 4.94191 5.19808C4.63545 5.03191 4.50152 4.73128 4.55071 4.38533C4.6014 4.03183 4.81025 3.78181 5.16059 3.67984C5.29377 3.64132 5.43981 3.6315 5.57979 3.6315C11.5243 3.62923 17.468 3.62923 23.4125 3.63225C23.5798 3.63225 23.7546 3.65265 23.9112 3.70628C24.2638 3.82713 24.5014 4.2252 24.4568 4.57492C24.4038 4.99489 24.0792 5.30685 23.6456 5.35066C23.5518 5.35973 23.4572 5.35444 23.3626 5.35444C20.4093 5.35444 17.4559 5.35444 14.5026 5.35444H14.5034Z" fill="black"/>
<path id="Vector_3" d="M20.4193 11.8143C21.4477 11.8143 22.476 11.8135 23.5043 11.8143C24.0612 11.8143 24.4638 12.1776 24.4608 12.6716C24.4585 13.1611 24.0786 13.5161 23.524 13.5176C21.4484 13.5221 19.3728 13.5229 17.2972 13.5176C16.7426 13.5161 16.3696 13.1588 16.3726 12.6633C16.3756 12.164 16.7691 11.8151 17.3336 11.8143C18.3619 11.8135 19.3902 11.8143 20.4186 11.8143H20.4193Z" fill="black"/>
<path id="Vector_4" d="M20.4178 8.18859C21.484 8.18859 22.5501 8.18633 23.6163 8.1901C23.9848 8.19162 24.2436 8.38196 24.3881 8.71054C24.5364 9.04742 24.4744 9.37751 24.2073 9.61468C24.0514 9.75367 23.813 9.87377 23.6102 9.87603C21.4779 9.89492 19.3463 9.89038 17.214 9.8851C16.7433 9.88359 16.371 9.49232 16.3726 9.03307C16.3741 8.56853 16.7327 8.19539 17.2193 8.19086C18.2855 8.18104 19.3516 8.18784 20.4178 8.18784V8.18859Z" fill="black"/>
<path id="Vector_5" d="M19.5424 15.4422C20.2779 15.4422 21.0126 15.4362 21.7481 15.4445C22.2112 15.4498 22.5373 15.7308 22.6251 16.1719C22.697 16.5337 22.4768 16.934 22.1136 17.0813C22.0107 17.1229 21.8964 17.1591 21.7867 17.1591C20.2696 17.1644 18.7516 17.1727 17.2345 17.1584C16.7805 17.1538 16.4536 16.8441 16.3802 16.434C16.3166 16.079 16.5202 15.687 16.8728 15.5366C17.0151 15.4762 17.1808 15.4468 17.3367 15.4453C18.0714 15.4362 18.8069 15.4415 19.5424 15.4415V15.4422Z" fill="black"/>
<path id="Vector_6" d="M8.35836 14.4322C8.30993 14.689 8.26075 14.9466 8.21156 15.2034C8.17524 15.3937 8.13892 15.5841 8.1026 15.7752C8.08368 15.8756 8.0292 15.93 7.93083 15.93C7.77874 15.93 7.62665 15.933 7.4738 15.93C7.34213 15.927 7.29673 15.8703 7.299 15.7276C7.30657 15.2578 7.33154 14.7879 7.31641 14.3196C7.30127 13.8626 7.24604 13.4072 7.20518 12.9509C7.20064 12.9003 7.1802 12.8437 7.14994 12.8059C6.92823 12.5295 6.70198 12.2568 6.47498 11.9849C6.4553 11.9607 6.42201 11.9433 6.3925 11.9358C6.11025 11.8655 5.92411 11.6752 5.79472 11.4123C5.63203 11.0822 5.56771 10.7227 5.51777 10.3601C5.50718 10.2846 5.49885 10.209 5.49129 10.1441C5.34903 10.0852 5.20072 10.0482 5.07965 9.96658C4.95102 9.88047 4.83827 9.76112 4.73612 9.64102C4.64834 9.53754 4.67483 9.43708 4.79136 9.36683C5.00171 9.23918 5.23175 9.20217 5.47086 9.2067C5.51096 9.2067 5.55031 9.19159 5.59041 9.18328C5.57377 9.14778 5.5609 9.1085 5.53896 9.07678C5.29606 8.71875 5.18861 8.31993 5.21207 7.88031C5.21661 7.79572 5.24688 7.71716 5.32709 7.71036C5.38384 7.70583 5.46632 7.73755 5.50112 7.78363C5.71224 8.06311 5.94454 8.31917 6.22224 8.52538C6.26083 8.55484 6.3191 8.56617 6.36828 8.56692C6.63918 8.5707 6.91007 8.5707 7.18096 8.56692C7.23317 8.56617 7.29522 8.55257 7.33684 8.5216C7.60243 8.3237 7.82944 8.0835 8.02618 7.81158C8.07839 7.73831 8.13363 7.67108 8.23275 7.70885C8.32809 7.74511 8.33944 7.83046 8.34323 7.92337C8.35912 8.36374 8.24107 8.75954 7.98986 9.11077C7.97548 9.13041 7.9664 9.15383 7.94218 9.19764C8.00575 9.1931 8.04963 9.1931 8.09352 9.18706C8.83356 9.09189 9.57662 9.13041 10.3197 9.12286C10.8153 9.11757 11.3109 9.07451 11.8051 9.03675C12.253 9.00276 12.6995 8.93402 13.1474 9.02391C13.494 9.0934 13.7497 9.29054 13.8996 9.63347C13.9109 9.6584 13.9306 9.68785 13.9533 9.69692C14.2158 9.80795 14.3573 10.0323 14.4618 10.2929C14.5957 10.6267 14.6532 10.9795 14.6918 11.336C14.7145 11.5445 14.7236 11.7545 14.7417 11.9637C14.744 11.9954 14.7516 12.0392 14.7728 12.0551C15.002 12.2379 15.0104 12.4992 14.9922 12.7614C14.9756 13.0015 14.8863 13.2198 14.7433 13.4094C14.6494 13.5341 14.548 13.5341 14.458 13.4072C14.2363 13.0937 14.144 12.7455 14.2423 12.3618C14.2673 12.2643 14.3407 12.1805 14.3899 12.0891C14.4065 12.0589 14.4338 12.0256 14.4323 11.9947C14.4058 11.4916 14.3687 10.9886 14.2083 10.5082C14.1682 10.3888 14.1046 10.2785 14.0516 10.1637L14.0236 10.1735C14.0236 10.2967 14.0342 10.422 14.0214 10.5444C13.9888 10.8549 13.9291 11.163 13.9109 11.4735C13.8927 11.7847 13.8852 12.1012 13.9223 12.4086C13.9873 12.9487 13.9677 13.4835 13.898 14.0182C13.8254 14.5772 13.7459 15.1354 13.6703 15.6944C13.6423 15.9006 13.6105 15.9323 13.4138 15.9323C13.2473 15.9323 13.0801 15.9346 12.9136 15.9315C12.7797 15.9293 12.7259 15.8734 12.7373 15.7329C12.7668 15.3446 12.8031 14.9571 12.8364 14.5696C12.8561 14.3378 12.8795 14.1059 12.8909 13.8732C12.8932 13.8294 12.8462 13.7833 12.822 13.7388C12.8107 13.7433 12.7993 13.7486 12.788 13.7531C12.7638 13.951 12.7418 14.1497 12.7153 14.3476C12.6503 14.8234 12.5837 15.2986 12.5156 15.7737C12.5012 15.8726 12.4467 15.9323 12.3468 15.9323C12.1509 15.9323 11.9549 15.9353 11.7597 15.9323C11.6348 15.93 11.5773 15.856 11.5894 15.7231C11.6439 15.115 11.6999 14.507 11.7521 13.8989C11.7559 13.8581 11.7385 13.803 11.712 13.7735C11.5455 13.5892 11.3737 13.4094 11.2012 13.2312C11.171 13.2002 11.1271 13.1655 11.09 13.1662C10.586 13.1715 10.0828 13.1828 9.57889 13.1934C9.5577 13.1934 9.53576 13.1957 9.51457 13.1972C9.51306 13.207 9.50928 13.2191 9.5123 13.2214C9.6538 13.3399 9.63867 13.4993 9.61748 13.661C9.52592 14.3521 9.43512 15.044 9.34356 15.7344C9.32238 15.8938 9.28151 15.9323 9.1332 15.9338C8.95538 15.9353 8.77756 15.9361 8.6005 15.9338C8.4643 15.9323 8.41133 15.8741 8.41133 15.7299C8.41057 15.2986 8.41133 14.8673 8.41133 14.4352C8.39392 14.4352 8.37652 14.4352 8.35912 14.4352L8.35836 14.4322ZM13.3684 15.5992C13.3759 15.5622 13.3858 15.5259 13.3911 15.4889C13.469 14.896 13.55 14.303 13.6234 13.7093C13.6733 13.306 13.671 12.9026 13.6196 12.4985C13.5621 12.0498 13.5628 11.6042 13.6423 11.154C13.6975 10.8413 13.7089 10.518 13.7142 10.1985C13.7179 9.96658 13.6461 9.74828 13.4993 9.56473C13.4455 9.49826 13.3986 9.47711 13.329 9.54056C13.2473 9.61534 13.1497 9.6735 13.074 9.75432C12.7471 10.1063 12.4149 10.4538 12.1077 10.8239C11.8785 11.0996 11.6068 11.234 11.2671 11.2537C10.6269 11.2899 10.1578 10.8692 10.0813 10.1992C10.0564 9.97715 9.99885 9.75886 9.9474 9.54132C9.93832 9.50355 9.88913 9.44841 9.85811 9.44765C9.52895 9.44086 9.20055 9.44312 8.89182 9.44312C8.85853 9.53074 8.84415 9.60326 8.80707 9.6584C8.66482 9.86536 8.47565 10.0074 8.23956 10.0761C8.1813 10.0927 8.12303 10.1078 8.06931 10.1222C8.04282 10.3019 8.02315 10.4727 7.99288 10.6403C7.93537 10.9561 7.85971 11.2658 7.68794 11.5392C7.55628 11.7492 7.37694 11.8874 7.1401 11.9365C7.07049 11.9509 7.00087 11.9622 6.92747 11.9758C7.06746 12.1593 7.21426 12.3255 7.33078 12.5121C7.47455 12.7417 7.65919 12.9207 7.87408 13.0635C8.07839 13.1987 8.2948 13.315 8.5097 13.4321C8.59596 13.4789 8.64439 13.5378 8.64817 13.6428C8.67011 14.2615 8.69357 14.8793 8.71703 15.498C8.71854 15.5312 8.72232 15.5644 8.72535 15.606C8.81237 15.606 8.89182 15.603 8.97052 15.6067C9.03332 15.6098 9.05678 15.5894 9.06586 15.5191C9.14077 14.9367 9.21947 14.3551 9.29816 13.7743C9.32086 13.6066 9.33524 13.4442 9.19677 13.3128C9.15515 13.2735 9.1332 13.2108 9.10521 13.1579C9.02878 13.0129 9.03635 12.9615 9.1491 12.8459C9.08553 12.7953 9.01516 12.753 8.96144 12.6934C8.84112 12.5627 8.71098 12.4358 8.61866 12.2847C8.48851 12.0732 8.52105 11.8549 8.67314 11.6593C8.79875 11.4977 8.96295 11.3934 9.14607 11.327C9.63564 11.1502 10.2251 11.2053 10.5285 11.8602C10.5618 11.932 10.6004 12.0015 10.6314 12.0747C10.726 12.2976 10.8199 12.5204 10.9091 12.7455C10.9364 12.815 10.9689 12.8459 11.0461 12.8346C11.1717 12.8165 11.2996 12.821 11.4252 12.8021C11.6999 12.7606 11.9798 12.7425 12.228 12.5846C12.3287 12.5204 12.4331 12.6005 12.4528 12.7296C12.4649 12.8067 12.483 12.8867 12.5156 12.9562C12.6404 13.2229 12.8349 13.417 13.0937 13.5356C13.186 13.5779 13.2276 13.6406 13.2178 13.7486C13.1822 14.1361 13.1504 14.5243 13.1164 14.9118C13.0967 15.1384 13.0778 15.365 13.0574 15.5984H13.3668L13.3684 15.5992ZM5.78034 9.88122C5.80001 10.0701 5.81439 10.268 5.8439 10.4636C5.88779 10.7536 5.94454 11.0414 6.0868 11.3005C6.19046 11.4894 6.33802 11.6155 6.55064 11.6359C6.65128 11.6457 6.75344 11.6412 6.85483 11.6457C7.20972 11.6608 7.42537 11.4674 7.54341 11.1328C7.71367 10.6509 7.78707 10.1516 7.75453 9.63876C7.72729 9.20519 7.52147 8.94308 7.14767 8.89399C6.9025 8.86151 6.6475 8.86302 6.40158 8.89399C6.06712 8.93478 5.87795 9.15383 5.81893 9.50733C5.79926 9.62743 5.7932 9.74979 5.78034 9.88122ZM10.2713 9.4401C10.3151 9.71807 10.3545 9.96507 10.3923 10.2121C10.4408 10.5301 10.5875 10.7672 10.8864 10.8768C11.2633 11.0142 11.6151 10.9032 11.8845 10.595C12.2152 10.2166 12.5602 9.85101 12.9 9.48164C12.9439 9.4333 12.9976 9.39478 13.0596 9.3404C13.018 9.33058 12.9953 9.32076 12.9719 9.31925C12.8054 9.31471 12.6382 9.29961 12.4732 9.31094C11.9208 9.3487 11.3692 9.40007 10.8168 9.43859C10.6337 9.45143 10.4491 9.44086 10.2713 9.44086V9.4401ZM10.6193 12.8633C10.4574 12.4924 10.3515 12.1216 10.1313 11.8081C10.0556 11.7001 9.95799 11.6238 9.83238 11.5943C9.591 11.5384 9.35794 11.5641 9.13547 11.6827C8.79118 11.867 8.75638 12.0815 9.05148 12.3444C9.25806 12.5279 9.49187 12.6768 9.71434 12.8407C9.73098 12.8527 9.75444 12.8618 9.77487 12.8618C10.0495 12.8633 10.3242 12.8626 10.6186 12.8626L10.6193 12.8633ZM11.5213 13.1337C11.6605 13.2992 11.7861 13.4563 11.9685 13.5454C12.0464 13.5839 12.0858 13.6451 12.0775 13.7357C12.0389 14.1686 11.9988 14.6014 11.9602 15.0334C11.9435 15.2208 11.9291 15.4088 11.9133 15.5977H12.2424C12.3272 14.9103 12.4119 14.2267 12.4944 13.5439C12.4974 13.5175 12.4883 13.4827 12.474 13.46C12.3733 13.3037 12.2697 13.1488 12.163 12.988C11.9662 13.0325 11.7528 13.0801 11.5213 13.133V13.1337ZM7.58125 13.2652C7.60622 14.0364 7.63119 14.8159 7.65692 15.6007H7.82187C7.90965 15.1339 7.99591 14.6701 8.0852 14.2078C8.12076 14.0243 8.16314 13.843 8.20248 13.6564C8.00877 13.5341 7.78934 13.3958 7.58125 13.2652ZM14.6025 12.3436C14.4822 12.4569 14.4814 12.8074 14.601 13.0091C14.7251 12.8195 14.7258 12.46 14.6025 12.3436ZM8.45446 9.60854C8.45068 9.59419 8.44765 9.57908 8.44387 9.56473C8.31901 9.54963 8.19492 9.53452 8.05342 9.51715C8.0625 9.61987 8.06855 9.69918 8.07839 9.81324C8.21989 9.7362 8.33717 9.67199 8.45446 9.6093V9.60854ZM5.94303 8.72252C5.81288 8.5994 5.69181 8.48384 5.56998 8.36827L5.54653 8.38262C5.61917 8.54426 5.69181 8.70591 5.76748 8.87435C5.83558 8.81543 5.88552 8.77238 5.94303 8.72252ZM5.11068 9.56247C5.10689 9.57984 5.10235 9.59646 5.09781 9.61383C5.21737 9.67577 5.33617 9.73695 5.47388 9.80871C5.48372 9.69163 5.48977 9.61534 5.4981 9.5179C5.3566 9.53376 5.23326 9.54812 5.10992 9.56247H5.11068ZM8.00499 8.38186C7.99742 8.37733 7.98986 8.3728 7.98153 8.36827C7.85895 8.48535 7.73561 8.60242 7.60924 8.72328C7.66675 8.77313 7.71669 8.81543 7.78479 8.87435C7.86046 8.70591 7.93235 8.54351 8.00499 8.38186Z" fill="black" stroke="black" stroke-width="0.3" stroke-miterlimit="10"/>
</g>
</svg>
