<svg width="39" height="32" viewBox="0 0 39 32" fill="none" xmlns="http://www.w3.org/2000/svg">
<path id="Vector" d="M33.5042 24.6576C33.089 26.5524 32.699 28.3237 32.3127 30.0962C32.1756 30.7237 32.0107 30.8608 31.3527 30.8633C30.6935 30.8658 30.0342 30.8683 29.3749 30.8633C28.6251 30.8571 28.3974 30.5545 28.5823 29.8368C28.9283 28.4966 29.2781 27.1576 29.6115 25.8137C29.9235 24.5538 29.2692 23.0382 28.113 22.323C27.1291 23.0283 26.1289 23.0407 25.135 22.3279C24.1096 23.0332 23.2276 23.0308 22.2035 22.3378C21.8801 22.4761 21.5681 22.6108 21.275 22.7368C21.426 23.8077 21.6071 24.854 21.7128 25.9064C21.8562 27.3244 21.7971 28.7375 21.387 30.1185C21.1982 30.7558 21.0535 30.8633 20.3955 30.8645C19.6105 30.867 18.8254 30.8732 18.0403 30.8621C17.3521 30.8522 17.0954 30.4717 17.3647 29.8566C17.761 28.9537 18.2038 28.0779 18.1082 27.0366C17.9723 25.5482 17.571 24.1388 16.957 22.7788C16.9419 22.7454 16.8941 22.7244 16.8199 22.6627C16.7406 23.5409 16.6601 24.3747 16.5909 25.2109C16.4273 27.1749 16.2676 29.1402 16.1065 31.1042C16.0725 31.5229 15.8473 31.7663 15.417 31.7712C14.4596 31.7823 13.5009 31.7934 12.5447 31.765C12.0012 31.749 11.7848 31.3685 11.971 30.8633C11.976 30.8485 11.9785 30.8324 11.9861 30.8201C12.6881 29.6664 12.7347 28.4287 12.5472 27.1329C12.3723 25.915 12.2956 24.6835 12.1673 23.4582C12.1106 22.9122 11.9106 22.4527 11.5004 22.0327C11.1821 21.7066 11.0991 21.1606 10.7871 20.8234C10.4738 20.485 9.95417 20.338 9.61951 20.0131C9.09863 19.5079 8.96527 18.8397 9.05711 18.2986C8.59663 17.7996 8.17012 17.4253 7.85936 16.9745C7.53979 16.51 7.73606 15.9282 7.66435 15.4156C7.59515 14.9314 7.09189 14.5213 6.92455 14.0309C6.73583 13.4739 6.89058 13.0526 7.26174 12.4177C6.54208 11.8903 6.40746 11.1133 6.41123 10.2326C5.44623 10.513 4.53156 10.8317 3.59172 11.0343C2.99284 11.1627 2.3298 11.2455 1.74225 11.1269C0.194725 10.8169 -0.459511 9.16292 0.346961 7.72883C0.656465 7.17792 1.03265 6.6616 1.38242 6.13169C1.90203 5.34361 2.41913 4.55307 2.95133 3.77241C3.30738 3.24991 3.58669 2.74594 3.63073 2.06163C3.71125 0.822697 4.94801 0.0556267 6.18476 0.334787C6.30932 0.363197 6.46533 0.35702 6.57982 0.306376C7.89584 -0.272944 8.85833 -0.0258976 9.59938 1.00675C10.4499 0.867168 11.2387 0.716468 12.0326 0.613945C12.6139 0.538596 12.9196 0.80911 12.8668 1.37855C12.8051 2.04433 12.6642 2.70394 12.546 3.43025C13.2405 3.59577 13.8242 4.06516 14.1526 4.82482C15.1906 4.71489 16.0197 5.02369 16.567 5.92046C17.488 5.47455 18.3724 5.49678 19.2242 6.11316C20.2056 5.44243 21.1945 5.43996 22.1821 6.10822C23.1547 5.45725 24.1285 5.43749 25.1299 6.10327C26.0937 5.47084 27.0826 5.41649 28.0841 6.10945C29.0617 5.45108 30.0506 5.43131 31.0382 6.10822C32.2636 5.39055 32.972 5.43626 34.1219 6.29103C34.2125 6.35897 34.3434 6.39355 34.4604 6.40591C35.8179 6.55043 36.4935 7.15939 36.7439 8.45267C36.7653 8.56013 36.8672 8.68612 36.9666 8.74047C38.0209 9.30991 38.4009 10.1017 38.2008 11.3184C38.1845 11.4197 38.2172 11.5605 38.2814 11.6395C39.1772 12.7352 39.2287 13.4874 38.4739 14.651C39.0451 15.9369 38.9331 16.4828 37.8712 17.5353C37.919 17.6057 37.9693 17.681 38.0197 17.7551C38.5418 18.5074 38.5481 19.3807 37.9266 20.0526C37.5982 20.4072 37.5969 20.7197 37.6976 21.1298C37.9001 21.9499 38.0926 22.7751 38.2386 23.6076C38.4185 24.6291 38.2008 25.626 37.9756 26.6228C37.6183 28.1977 37.2824 29.7776 36.9553 31.3586C36.8597 31.8194 36.6118 32.0084 36.1425 31.9997C35.3423 31.9849 34.5409 31.9997 33.7407 31.9948C33.0789 31.9911 32.8411 31.6847 33.006 31.0412C33.3595 29.6553 33.7093 28.2681 34.0817 26.8871C34.3018 26.0682 34.0339 25.3937 33.4991 24.6538L33.5042 24.6576ZM11.3859 2.26791C11.3344 2.23209 11.2828 2.19627 11.2312 2.16045C10.6977 2.23703 10.1706 2.27903 9.734 2.69406C9.38172 3.02757 8.87846 2.825 8.76145 2.35314C8.73503 2.24815 8.72119 2.14068 8.70483 2.03445C8.63815 1.6293 8.39533 1.3662 8.00656 1.24144C7.63667 1.12162 7.32716 1.24762 7.07805 1.52307C6.79622 1.83435 6.47791 1.86029 6.10298 1.69724C5.27261 1.33779 4.79829 1.69353 4.80709 2.5903C4.81087 2.91887 4.71273 3.29315 4.53533 3.56984C3.57662 5.06816 2.56507 6.5356 1.60385 8.03269C1.41261 8.33038 1.26541 8.71577 1.26918 9.05916C1.27673 9.83118 1.9511 10.2351 2.90352 9.9757C4.86371 9.44208 6.80503 8.843 8.74887 8.25503C9.31252 8.08457 9.67738 7.73501 9.74406 7.10134C9.76419 6.91235 9.99443 6.66407 10.1869 6.58872C10.5921 6.42938 10.9607 6.74436 10.933 7.20386C10.8701 8.22415 10.3291 8.93193 9.3792 9.32721C9.02063 9.47667 8.63564 9.5656 8.26826 9.69777C8.1437 9.74224 7.99901 9.804 7.92352 9.90282C7.46304 10.5068 7.6568 11.3171 8.33242 11.6741C8.93759 11.9941 8.99295 12.3523 8.50982 12.8266C7.91849 13.4047 7.9814 14.1458 8.6847 14.5769C9.08857 14.8239 9.19425 15.1019 9.00176 15.5391C8.6608 16.3124 9.03447 16.9547 9.8812 17.1091C10.4826 17.219 10.6575 17.513 10.4411 18.0479C10.1064 18.8767 10.4411 19.477 11.3331 19.6265C11.7244 19.692 11.8905 19.9057 11.9924 20.291C12.0918 20.6715 12.2767 21.0878 12.556 21.3558C13.3776 22.1451 14.9515 21.9994 15.7253 21.1236C16.104 20.6937 16.4663 20.6826 16.8136 21.0915C17.4376 21.824 18.0667 21.8202 18.7222 21.0791C19.0518 20.7073 19.4758 20.6764 19.7438 21.0828C20.2068 21.7857 21.2284 21.8128 21.699 21.0618C21.9393 20.6801 22.3935 20.7135 22.6954 21.0556C23.3723 21.824 23.9737 21.8314 24.6279 21.0766C24.95 20.7048 25.335 20.7048 25.6609 21.0754C26.3277 21.8314 26.9014 21.8264 27.5972 21.0569C27.8853 20.7382 28.2237 20.716 28.537 21.005C28.6389 21.0989 28.7207 21.2162 28.8138 21.32C29.3095 21.8746 29.9939 21.9117 30.5488 21.4262C30.7878 21.2175 30.8256 21.0322 30.7123 20.7085C30.4796 20.0477 30.3047 19.3585 30.1839 18.6692C30.1034 18.2097 30.3953 17.8922 30.7652 17.8774C31.1162 17.8626 31.3553 18.1208 31.4006 18.5864C31.4836 19.4461 31.7277 20.2639 32.2662 20.942C32.5304 21.2743 32.9242 21.5794 33.3243 21.7214C34.5736 22.1649 35.7688 21.5658 36.262 20.3516C36.3501 20.1354 36.4923 19.9131 36.6709 19.7661C37.3315 19.2275 37.3453 18.5173 36.6747 17.9651C36.1991 17.5736 36.2545 17.1017 36.8043 16.8411C37.6271 16.452 37.8045 15.7825 37.2685 15.0809C36.9452 14.6584 36.9603 14.462 37.3453 14.0853C37.9618 13.4813 37.8964 12.7661 37.1805 12.3004C36.7288 12.0064 36.6709 11.8125 36.8961 11.3419C37.2648 10.5698 36.9465 9.90899 36.1148 9.7163C35.5713 9.59031 35.4631 9.43714 35.5235 8.87264C35.6091 8.0821 35.0303 7.51637 34.2377 7.64236C33.9017 7.69548 33.669 7.59913 33.4589 7.34714C32.8751 6.64677 32.1957 6.64554 31.6069 7.32985C31.2131 7.78812 30.886 7.78689 30.4947 7.32615C29.9298 6.6616 29.2214 6.65542 28.6666 7.31132C28.2577 7.79553 27.923 7.79553 27.5267 7.31256C26.987 6.65542 26.2535 6.66036 25.7049 7.32738C25.3312 7.78194 24.979 7.78318 24.5902 7.33109C23.9989 6.6443 23.3371 6.64924 22.7332 7.3422C22.3557 7.77577 22.0123 7.77824 21.6486 7.34962C21.046 6.63813 20.3892 6.64307 19.769 7.3632C19.4217 7.76589 19.0493 7.76835 18.7084 7.36938C18.078 6.62948 17.4364 6.6443 16.7897 7.36814C16.6488 7.52502 16.3368 7.67695 16.1644 7.62754C15.9618 7.56949 15.7253 7.31009 15.6787 7.1001C15.4636 6.12057 14.988 5.8377 13.9903 6.16504C13.5147 6.32067 13.1801 6.13292 13.1109 5.64501C13.0404 5.14351 12.8202 4.73589 12.2956 4.63954C12.01 4.58766 11.6917 4.74083 11.3885 4.73959C11.1482 4.73959 10.8185 4.71612 10.6927 4.56789C10.5669 4.41967 10.5707 4.07751 10.6499 3.86876C10.8575 3.31908 11.1381 2.79658 11.3885 2.26297L11.3859 2.26791ZM35.794 30.7892C35.8317 30.6768 35.877 30.578 35.8997 30.4742C36.2205 28.9697 36.4998 27.4566 36.8697 25.9644C37.2082 24.5995 36.9817 23.3025 36.6068 21.924C35.8796 22.7603 34.9913 23.1024 33.8942 23.0666C33.9709 23.1938 33.9986 23.263 34.0452 23.3149C35.3486 24.749 35.711 26.3498 35.0517 28.1928C34.7548 29.0241 34.6013 29.9048 34.3761 30.7904H35.7927L35.794 30.7892ZM13.4002 23.1617C13.5021 24.2512 13.6481 25.4061 13.7072 26.5647C13.7739 27.858 14.2721 29.1822 13.4984 30.4347C13.4883 30.4508 13.516 30.4878 13.5286 30.5224H14.9113C15.1302 27.9309 15.3466 25.3641 15.558 22.8591C14.837 22.9604 14.1363 23.0592 13.4002 23.1629V23.1617ZM30.3726 22.9715C31.1011 24.623 31.1238 24.9318 30.6721 26.708C30.4305 27.6591 30.194 28.6103 29.9373 29.6306C30.2141 29.6306 30.4469 29.6083 30.6733 29.6355C31.0395 29.6812 31.1854 29.549 31.2609 29.1859C31.6459 27.3355 32.0636 25.4926 32.4637 23.6447C32.4876 23.5347 32.5027 23.3803 32.4448 23.3013C32.1655 22.9184 31.8585 22.5552 31.593 22.2217C31.1665 22.4836 30.7853 22.717 30.3726 22.969V22.9715ZM18.302 22.701C19.1311 24.9911 19.8772 27.2244 18.8442 29.6318C19.1613 29.6318 19.4305 29.6059 19.691 29.638C20.0986 29.6886 20.2207 29.512 20.2873 29.1377C20.6698 27.0032 20.4157 24.9046 19.969 22.8146C19.9426 22.6911 19.8055 22.5651 19.6872 22.4922C19.1814 22.1834 18.7952 22.6194 18.302 22.701Z" fill="white"/>
</svg>
