<svg width="90" height="90" viewBox="0 0 90 90" fill="none" xmlns="http://www.w3.org/2000/svg">
<path id="Vector" d="M0 39.3327C0.509456 38.1115 0.990739 36.8756 1.53541 35.674C4.20947 29.778 8.55745 25.7383 14.3117 23.2763C14.5535 23.1737 14.793 23.0687 15.016 22.971C14.4855 21.3419 13.8445 19.7788 13.4689 18.1473C12.2692 12.9279 12.4993 7.81835 14.9714 2.99216C15.8542 1.26294 17.19 0.0783729 19.1926 0.0344097C21.2211 -0.011996 22.9819 1.30202 23.3246 3.38539C23.8036 6.29673 25.2803 8.59504 27.1819 10.6051C29.0249 12.5542 31.0439 14.3249 33.0254 16.1274C33.2625 16.3448 33.7673 16.3888 34.1054 16.313C34.9576 16.1225 35.7793 15.783 36.6268 15.5632C37.627 15.3043 38.5402 15.8123 38.8126 16.716C39.1248 17.7492 38.6318 18.6895 37.5847 19.0876C35.9413 19.7104 34.2345 20.1965 32.6733 20.9951C25.6536 24.5757 21.5357 30.5132 19.9204 38.3973C19.8641 38.6781 20.0613 39.2008 20.2867 39.3278C22.7588 40.7322 25.3695 41.0961 28.0717 40.1802C29.7738 39.6014 30.9195 38.3948 31.6262 36.646C32.1544 35.3418 32.7578 34.018 33.5771 32.8994C36.0399 29.5338 39.8784 28.3858 43.9658 29.7218C46.0623 30.4081 48.1048 30.3495 50.1615 29.6583C54.594 28.1685 55.7983 24.2191 55.1762 20.3528C55.1457 20.1574 54.8898 19.9229 54.6902 19.8472C53.9788 19.5785 53.2417 19.3831 52.5186 19.1413C51.3611 18.7506 50.8634 17.8762 51.1498 16.7746C51.4081 15.7806 52.3237 15.2921 53.4577 15.5754C54.0235 15.7171 54.6174 15.8343 55.1269 16.1103C56.1153 16.6452 56.8172 16.3326 57.6155 15.6316C60.1721 13.387 62.6889 11.1156 64.6492 8.26043C65.5766 6.91222 66.2715 5.46143 66.5509 3.8006C66.8585 1.97124 67.8351 0.676762 69.5983 0.176069C71.352 -0.322181 72.8522 0.261553 74.0401 1.61709C75.653 3.45622 76.3339 5.76673 76.7682 8.13831C77.6674 13.0598 77.1251 17.82 75.0638 22.3726C74.9933 22.5314 74.944 22.6999 74.9276 22.739C76.9349 23.9138 78.968 24.9298 80.8227 26.2219C85.382 29.4043 88.1171 34.018 89.8826 39.318C90.2441 40.4074 89.7581 41.4454 88.5984 41.6994C86.2342 42.2147 83.8466 42.7667 81.4472 42.9084C79.3084 43.0354 77.1415 42.6324 74.9886 42.4639C74.7327 42.4443 74.4768 42.4297 74.1505 42.4101C74.1505 43.5849 74.1669 44.706 74.1481 45.827C74.0707 50.409 73.5096 54.9201 72.27 59.3238C72.0845 59.9857 72.1901 60.3984 72.6268 60.9235C75.592 64.4846 76.4536 68.7124 75.9958 73.2772C75.4112 79.117 72.2512 83.0664 67.3984 85.7701C63.8886 87.7265 60.0853 88.6155 56.2045 89.209C51.5583 89.9198 46.877 90.1152 42.1933 89.9393C36.6034 89.7317 31.0346 89.2261 25.724 87.216C21.7728 85.7213 18.2841 83.5011 16.0068 79.6544C12.5932 73.8854 13.2623 65.7546 17.5258 60.6524C17.6995 60.4448 17.8403 60.0516 17.7746 59.8123C16.2533 54.2338 15.6711 48.5406 15.819 42.7569C15.819 42.669 15.7908 42.5811 15.7626 42.4126C14.523 42.564 13.2952 42.7374 12.0603 42.8595C8.52693 43.2039 5.04526 42.8693 1.6528 41.802C1.04474 41.6163 0.549367 41.0204 0 40.6125C0 40.1851 0 39.7601 0 39.3327ZM46.8253 86.371C48.9172 86.1682 52.8332 85.9069 56.7116 85.372C60.3459 84.8713 63.8416 83.7698 67.0111 81.7426C72.8076 78.0326 73.5941 71.1987 71.5985 66.1405C70.2979 62.8433 67.7224 60.8649 64.7079 59.4605C60.097 57.3137 55.1785 56.5394 50.1967 56.3709C45.9332 56.2268 41.651 56.3147 37.3898 56.5516C33.5325 56.7666 29.7386 57.5481 26.1302 59.0746C21.3478 61.0994 17.9014 64.3063 17.4671 70.041C17.1853 73.7584 18.0399 77.1069 20.6553 79.818C22.7424 81.9795 25.3272 83.23 28.0858 84.1288C33.5936 85.9216 39.2845 86.222 46.823 86.371H46.8253ZM69.0043 57.6116C69.0864 57.3747 69.1827 57.1574 69.2367 56.9302C70.5843 51.0782 71.1478 45.1798 70.1265 39.2008C69.1123 33.2584 66.7035 28.1074 62.1607 24.202C61.1723 23.352 60.0782 22.6389 58.8668 21.7401C58.8668 22.3262 58.8785 22.5998 58.8668 22.8709C58.6719 26.5565 57.2868 29.6119 54.2629 31.6464C50.8752 33.9252 47.1986 34.4748 43.2615 33.383C42.0782 33.0557 40.7588 32.8945 39.5615 33.0753C37.2419 33.427 36.0469 35.2514 35.1431 37.3372C34.6665 38.4388 34.2368 39.6258 33.5137 40.5392C30.7106 44.0807 26.9472 44.8232 22.8081 44.1418C21.6718 43.9537 20.5731 43.5312 19.3546 43.1893C19.2936 48.0838 19.7232 52.8832 20.9393 57.6629C21.4582 57.3601 21.8831 57.0987 22.3198 56.8618C26.7241 54.4854 31.5041 53.4986 36.3639 52.9002C41.2871 52.2945 46.2267 52.2164 51.1733 52.6682C57.383 53.2349 63.4566 54.3046 69.0043 57.6141V57.6116ZM29.7245 18.3793C27.797 16.3912 25.8625 14.535 24.0853 12.5273C22.0709 10.2485 20.4721 7.68891 19.9345 4.54309C19.7702 3.58078 19.1715 3.43424 18.5259 4.14986C18.2723 4.43074 18.0751 4.78733 17.9131 5.13904C16.1969 8.87836 15.9481 12.7789 16.7909 16.7844C17.5117 20.2111 19.0565 23.1908 21.4112 25.8262C23.7355 22.7366 26.4847 20.2331 29.7222 18.3842L29.7245 18.3793ZM68.6826 25.9996C69.7321 24.3266 70.8214 22.9075 71.5821 21.32C74.12 16.0297 74.4393 10.6125 72.0563 5.14392C71.8685 4.71406 71.5821 4.29152 71.244 3.98134C70.7134 3.49285 70.2908 3.6565 70.0795 4.36724C69.9692 4.74337 69.9175 5.13659 69.8236 5.52005C69.1569 8.21646 67.7177 10.4732 65.9405 12.4736C64.1374 14.4983 62.1912 16.3839 60.259 18.3793C63.4472 20.2184 66.2246 22.695 68.6826 26.0021V25.9996ZM72.9766 26.1803C72.2629 27.023 71.561 27.7972 70.9341 28.6325C70.7745 28.845 70.7252 29.3188 70.8425 29.5558C72.1549 32.1887 73.0283 34.9706 73.6293 37.8624C73.6856 38.131 74.0002 38.4827 74.2514 38.5438C77.3504 39.3009 80.487 39.4744 83.647 39.0616C84.3537 38.9688 85.0533 38.8271 85.8257 38.6977C83.3982 32.3376 78.9868 28.4029 72.9766 26.1803ZM16.9975 26.1803C10.9803 28.4127 6.55484 32.3499 4.16251 38.6879C8.12782 39.4963 11.9546 39.4573 15.7673 38.5316C15.9997 38.4754 16.2932 38.1506 16.3425 37.9063C16.9341 34.9754 17.831 32.1642 19.1621 29.502C19.2701 29.2871 19.2114 28.8499 19.0635 28.6545C18.4273 27.8216 17.7277 27.0425 16.9999 26.1828L16.9975 26.1803Z" fill="#90010A"/>
</svg>
