<svg width="106" height="90" viewBox="0 0 106 90" fill="none" xmlns="http://www.w3.org/2000/svg">
<path d="M69.4837 37.8517H62.1576C58.9032 37.8517 57.076 40.5507 55.6078 42.7192C54.7083 44.048 53.7781 45.422 52.9999 45.422C52.2218 45.422 51.2916 44.048 50.3921 42.7192C48.9239 40.5505 47.0967 37.8517 43.8423 37.8517H36.5161C35.5679 37.8517 34.7991 38.6461 34.7991 39.626C34.7991 40.6059 35.5679 41.4003 36.5161 41.4003H43.8423C45.2061 41.4003 46.2068 42.7279 47.5779 44.7532C48.9161 46.73 50.433 48.9706 52.9999 48.9706C55.5668 48.9706 57.0836 46.73 58.422 44.7532C59.7931 42.7277 60.7938 41.4003 62.1576 41.4003H69.4837C70.432 41.4003 71.2008 40.6059 71.2008 39.626C71.2008 38.6461 70.432 37.8517 69.4837 37.8517Z" fill="#90010A"/>
<path d="M90.1366 8.86405C85.7664 6.3015 81.6385 3.88136 80.1646 0.955425C79.7995 0.230329 79.0014 -0.143219 78.2333 0.0512441C77.4649 0.24547 76.9244 0.957318 76.9244 1.77468C76.9244 6.4309 79.9844 10.0514 82.9437 13.5529C85.5237 16.6052 87.9603 19.4883 87.9136 22.5654C87.8273 28.2715 77.2408 30.2817 74.9782 30.2817C74.9347 30.2817 74.8921 30.285 74.8495 30.2883C73.2014 28.7617 70.7588 28.1885 68.3693 27.6281C67.112 27.3333 65.812 27.0283 64.5318 26.5874C63.219 26.1353 62.1071 25.5604 61.0317 25.0045C58.8511 23.877 56.596 22.7114 52.9998 22.7114C49.4036 22.7114 47.1485 23.8772 44.9678 25.0045C43.8925 25.5604 42.7805 26.1353 41.4677 26.5874C40.1875 27.0283 38.8876 27.3333 37.6302 27.6281C35.2408 28.1883 32.7982 28.7617 31.15 30.2883C31.1075 30.285 31.0649 30.2817 31.0214 30.2817C28.7587 30.2817 18.1722 28.2715 18.0859 22.5654C18.0395 19.4883 20.4761 16.6052 23.0558 13.5529C26.0156 10.0514 29.0756 6.43067 29.0756 1.77444C29.0756 0.956845 28.5351 0.245234 27.7667 0.0510077C26.9979 -0.143219 26.2008 0.229856 25.8354 0.955188C24.3615 3.88136 20.2336 6.3015 15.8634 8.86405C8.4278 13.2239 0 18.1654 0 28.034C0 33.9994 3.79219 39.4957 10.9665 43.9286C16.0999 47.1004 21.9825 49.1292 26.0504 50.0592C25.7981 51.8512 25.6417 53.4758 25.6417 54.7667C25.6417 61.8713 32.5908 66.5793 36.7424 69.3921C37.5737 69.9552 38.5581 70.6226 39.0991 71.0728C38.8228 71.7361 38.6044 72.5125 38.4785 73.4484C37.9846 77.1226 39.9208 80.3495 43.5314 81.8699C43.5784 81.8896 43.6274 81.9068 43.675 81.926C43.5845 82.2856 43.4953 82.6984 43.4268 83.1427C43.1012 85.2555 43.4144 86.9167 44.3577 88.0802C46.7121 90.9839 49.4551 89.903 51.0936 89.2569C51.8006 88.9782 52.4682 88.7149 53 88.7149C53.5318 88.7149 54.1994 88.9782 54.9064 89.2569C55.7146 89.5756 56.7915 90 57.9577 90C59.1562 90 60.4491 89.5517 61.6423 88.0802C62.5858 86.917 62.899 85.2558 62.5732 83.1427C62.5047 82.6984 62.4155 82.2854 62.325 81.926C62.3726 81.9068 62.4216 81.8896 62.4686 81.8699C66.0792 80.3497 68.0154 77.1229 67.5215 73.4484C67.3958 72.5125 67.1772 71.7361 66.9009 71.0728C67.4421 70.6228 68.4265 69.9554 69.2576 69.3921C73.4095 66.5795 80.3585 61.8715 80.3585 54.7667C80.3585 53.4758 80.2019 51.8515 79.9499 50.0592C84.0177 49.1292 89.9001 47.1004 95.0337 43.9286C102.208 39.496 106 33.9997 106 28.034C106 18.1654 97.5722 13.2239 90.1366 8.86405ZM12.7289 40.883C8.4887 38.2632 3.43413 33.9074 3.43413 28.034C3.43413 20.2318 10.6144 16.0218 17.5582 11.9501C19.1677 11.0065 20.7469 10.0805 22.2096 9.12192C21.6547 9.81602 21.0658 10.5127 20.4694 11.2184C17.5765 14.6412 14.5852 18.1805 14.6523 22.6205C14.7706 30.4511 24.8468 33.0908 29.3183 33.6872C29.1676 34.3846 28.9881 35.1934 28.7894 36.0893C28.1195 39.1061 27.267 42.9466 26.6181 46.5558C22.8459 45.6781 17.4506 43.8004 12.7289 40.883ZM59.0099 85.8013C58.2892 86.6903 57.8831 86.6324 56.1303 85.9414C55.2088 85.578 54.1644 85.1663 53 85.1663C51.8356 85.1663 50.7912 85.578 49.8697 85.9414C48.1174 86.6319 47.711 86.6903 46.99 85.8011C46.5679 85.2804 46.7265 83.8115 47.0395 82.6459C47.1714 82.6513 47.3032 82.6563 47.4347 82.6563C48.6597 82.6563 49.8573 82.4152 50.8631 81.8796C51.3752 82.5451 52.0428 83.0372 53.0002 83.0372C53.9574 83.0372 54.6253 82.5451 55.1372 81.8796C56.1429 82.4152 57.3405 82.6563 58.5656 82.6563C58.6977 82.6563 58.83 82.6513 58.9623 82.6459C59.2785 83.8233 59.4227 85.2922 59.0099 85.8013ZM67.3748 66.4248C66.378 67.1002 65.5492 67.6616 64.9027 68.1854C64.8127 68.091 64.723 67.9975 64.6344 67.9055C63.244 66.4634 62.0432 65.2181 62.0432 60.4447C62.0432 59.0371 62.0752 57.7362 62.1545 56.541C62.1556 56.541 62.1565 56.5413 62.1577 56.5413C64.9972 56.5413 67.2228 55.7244 68.7722 54.1133C70.7982 52.0069 71.1432 49.1361 71.1951 47.0784H71.3153C72.2636 47.0784 73.0324 46.284 73.0324 45.3041C73.0324 44.3242 72.2636 43.5298 71.3153 43.5298H69.4838C59.9264 43.5298 58.6091 51.6594 58.6091 60.4447C58.6091 66.6841 60.6011 68.7501 62.2016 70.4101C63.2122 71.4584 63.8798 72.1506 64.1199 73.9369C64.4968 76.7417 62.4351 78.0524 61.1725 78.5839C59.5097 79.2837 57.7547 79.2419 56.7924 78.7697C57.3341 77.7886 57.7945 77.3597 58.4944 77.3597C59.4426 77.3597 60.2114 76.5653 60.2114 75.5854C60.2114 74.6055 59.4426 73.8111 58.4944 73.8111C55.2368 73.8111 53.8963 76.7136 53.0952 78.4479C53.0655 78.5125 53.0332 78.582 52.9998 78.6542C52.9663 78.582 52.9341 78.5125 52.9043 78.4479C52.1032 76.7136 50.7628 73.8111 47.5052 73.8111C46.5569 73.8111 45.7881 74.6055 45.7881 75.5854C45.7881 76.5653 46.5569 77.3597 47.5052 77.3597C48.205 77.3597 48.6657 77.7886 49.2074 78.7697C48.2451 79.2419 46.4898 79.284 44.8272 78.5839C43.5646 78.0524 41.503 76.7417 41.8798 73.9369C42.12 72.1508 42.7876 71.4584 43.7981 70.4101C45.3987 68.7501 47.3907 66.6841 47.3907 60.4447C47.3907 51.6594 46.0734 43.5298 36.516 43.5298H34.6844C33.7362 43.5298 32.9674 44.3242 32.9674 45.3041C32.9674 46.284 33.7362 47.0784 34.6844 47.0784H34.8046C34.8568 49.1361 35.2018 52.0069 37.2275 54.1133C38.774 55.7213 40.9943 56.538 43.8263 56.541C43.9124 57.7017 43.9566 58.9964 43.9566 60.4447C43.9566 65.2181 42.7558 66.4634 41.3654 67.9055C41.2768 67.9975 41.1871 68.091 41.0971 68.1854C40.4506 67.6619 39.6218 67.1002 38.625 66.4248C34.8225 63.8483 29.0756 59.9548 29.0756 54.7667C29.0756 50.6705 30.9918 42.0396 32.1368 36.883C32.3492 35.9263 32.5409 35.0635 32.6977 34.3332C33.091 32.5038 34.6526 31.9649 38.3903 31.0886C39.6664 30.7894 41.1129 30.4501 42.5538 29.954C44.0985 29.422 45.3769 28.7612 46.5047 28.1781C48.5775 27.1064 50.2149 26.26 53.0002 26.26C55.7855 26.26 57.4227 27.1064 59.4958 28.1781C60.6235 28.7612 61.9019 29.422 63.4466 29.954C64.8873 30.4504 66.3338 30.7896 67.6101 31.0886C71.3478 31.9651 72.9092 32.5038 73.3028 34.3332C73.4598 35.0633 73.6512 35.9263 73.8637 36.883C75.0082 42.0398 76.9244 50.6705 76.9244 54.7667C76.9244 59.9548 71.1775 63.8483 67.3748 66.4248ZM62.6142 52.978C63.3195 49.7027 64.809 47.7427 67.7539 47.2213C67.6953 48.6987 67.4334 50.4713 66.3365 51.6116C65.5286 52.4519 64.2742 52.9073 62.6142 52.978ZM43.3467 52.9768C41.7058 52.9007 40.4652 52.4453 39.6635 51.6116C38.5604 50.4647 38.3019 48.6783 38.2454 47.1957C40.767 47.5827 42.4955 49.0265 43.3467 52.9768ZM93.2711 40.883C88.5496 43.8004 83.1541 45.6781 79.3819 46.556C78.7328 42.9469 77.8802 39.1063 77.2106 36.0896C77.0116 35.1937 76.8321 34.3846 76.6817 33.6874C81.1532 33.091 91.2294 30.4511 91.3477 22.6208C91.4148 18.1805 88.4235 14.6414 85.5306 11.2187C84.9342 10.513 84.3453 9.81626 83.7904 9.12215C85.2531 10.0807 86.8325 11.0067 88.4418 11.9504C95.3856 16.0218 102.566 20.2318 102.566 28.0343C102.566 33.9074 97.5113 38.2632 93.2711 40.883Z" fill="#90010A"/>
</svg>
