<svg width="25" height="22" viewBox="0 0 25 22" fill="none" xmlns="http://www.w3.org/2000/svg">
<g id="Group 36685">
<path id="Vector" d="M1.80962 19.6268H3.57325V19.3071C3.57325 16.1925 3.57325 13.079 3.57325 9.96441C3.57325 9.25609 3.90168 8.93095 4.61436 8.93095C9.30972 8.93095 14.0051 8.93095 18.6994 8.93095C19.1482 8.93095 19.481 9.16961 19.6058 9.57029C19.7175 9.92937 19.5916 10.3476 19.2533 10.5446C19.0727 10.6497 18.8362 10.7056 18.6249 10.7067C14.3204 10.7154 10.0158 10.7132 5.71129 10.7132C5.60182 10.7132 5.49344 10.7132 5.37083 10.7132V12.4999C5.47702 12.4999 5.5843 12.4999 5.69049 12.4999C8.84227 12.4999 11.994 12.4988 15.1458 12.501C15.8268 12.501 16.2734 13.1578 15.9932 13.7534C15.818 14.1256 15.5115 14.2865 15.0944 14.2854C11.97 14.28 8.84665 14.2822 5.72224 14.2822C5.61167 14.2822 5.5022 14.2822 5.37411 14.2822V16.0688C5.48906 16.0688 5.59853 16.0688 5.70691 16.0688C8.26315 16.0688 10.8205 16.0688 13.3767 16.0688C13.7993 16.0688 14.1332 16.3206 14.2514 16.7125C14.3598 17.0716 14.2295 17.4898 13.8934 17.6858C13.7194 17.7876 13.4938 17.8423 13.2913 17.8434C10.7625 17.8533 8.23359 17.85 5.70472 17.85C5.60291 17.85 5.5011 17.85 5.3774 17.85V19.6366H5.69487C8.25111 19.6366 10.8084 19.6366 13.3647 19.6366C13.8277 19.6366 14.2109 19.9541 14.2744 20.3778C14.3412 20.8234 14.0872 21.2437 13.6581 21.3762C13.5541 21.408 13.4391 21.4167 13.3296 21.4167C9.20135 21.4189 5.07415 21.4189 0.945861 21.4167C0.370024 21.4167 0.00218949 21.0522 0.00218949 20.4807C0.00218949 16.3589 0.00547373 12.2317 0 8.1044C0 7.69496 0.190486 7.43003 0.515626 7.21436C3.61704 5.15183 6.71518 3.08382 9.8144 1.01801C10.1855 0.770589 10.5566 0.524267 10.9278 0.276851C11.4784 -0.0898949 11.7335 -0.0920844 12.2754 0.269187C14.6784 1.87083 17.0813 3.47246 19.4843 5.0741C20.5199 5.7638 21.5479 6.46554 22.5934 7.13882C23.0269 7.41799 23.2513 7.75408 23.2152 8.28504C23.1813 8.78425 23.2108 9.28894 23.2075 9.79034C23.2042 10.329 22.8233 10.7176 22.3066 10.7132C21.8074 10.7099 21.4297 10.3191 21.4253 9.79691C21.422 9.43454 21.4362 9.07108 21.4176 8.70981C21.4121 8.61018 21.3443 8.47881 21.2633 8.42408C18.0994 6.30352 14.9323 4.18953 11.7587 2.08321C11.6853 2.03395 11.5211 2.03832 11.4456 2.08868C8.273 4.19501 5.1059 6.30899 1.94208 8.42736C1.86545 8.47881 1.7921 8.59924 1.7921 8.68791C1.78553 12.3039 1.78663 15.9199 1.78772 19.5359C1.78772 19.5622 1.79976 19.5874 1.80962 19.6257V19.6268Z" fill="black"/>
<path id="Vector_2" d="M17.8552 16.071C17.8552 15.1744 17.8552 14.3204 17.8552 13.4665C17.8552 12.8535 18.2088 12.502 18.8241 12.5009C19.967 12.4998 21.1099 12.4998 22.2528 12.5009C22.8462 12.5009 23.2064 12.8611 23.2074 13.4534C23.2096 14.315 23.2074 15.1776 23.2074 16.0699C23.5063 16.0699 23.7822 16.0688 24.0581 16.0699C24.6164 16.0732 24.9908 16.4366 24.9919 16.9873C24.9952 18.1576 24.9952 19.329 24.9919 20.4993C24.9908 21.0543 24.6219 21.4211 24.0635 21.4211C21.712 21.4233 19.3616 21.4233 17.0101 21.4211C16.4364 21.4211 16.0708 21.0543 16.0697 20.4818C16.0675 19.3202 16.0675 18.1587 16.0697 16.9971C16.0708 16.4377 16.4342 16.0732 16.9915 16.0688C17.2684 16.0666 17.5454 16.0688 17.8541 16.0688L17.8552 16.071ZM21.4197 14.3073H19.6572V16.0491H21.4197V14.3073ZM19.62 19.6289V17.8773H17.8684V19.6289H19.62ZM23.1954 19.6278V17.8708H21.4438V19.6278H23.1954Z" fill="black"/>
<path id="Vector_3" d="M11.6338 5.36205C11.9217 5.36205 12.2107 5.35877 12.4986 5.36205C13.0011 5.36972 13.3854 5.7496 13.3897 6.23896C13.3941 6.74802 13.0153 7.13776 12.4975 7.14323C11.9031 7.14871 11.3075 7.14871 10.712 7.14323C10.1964 7.13885 9.81649 6.74693 9.82087 6.23786C9.82634 5.74522 10.2062 5.36972 10.712 5.36205C11.0185 5.35767 11.3251 5.36205 11.6327 5.36205H11.6338Z" fill="black"/>
</g>
</svg>
