<svg width="277" height="240" viewBox="0 0 277 240" fill="none" xmlns="http://www.w3.org/2000/svg">
<mask id="path-1-inside-1_1_2883" fill="white">
<path d="M174.098 205.617C171.984 201.758 169.88 197.909 167.629 193.792C167.949 197.775 168.095 201.582 168.58 205.328C170.85 222.88 160.235 235.602 147.516 238.811C140.552 240.566 133.598 240.452 126.79 237.976C115.526 233.879 106.064 222.622 108.251 204.513C108.663 201.139 108.819 197.733 108.819 194.246C106.897 197.96 104.975 201.675 103.054 205.39L102.615 205.338C102.111 202.222 101.645 199.106 101.096 196.01C99.7505 188.436 98.6524 180.78 96.8681 173.34C95.8615 169.131 93.6837 165.271 91.9909 161.144C80.4979 168.78 69.8193 165.891 59.4243 159.4C55.8465 157.171 52.5431 154.385 49.1209 151.847L49.3496 151.125C51.7104 151.125 54.0804 151.125 56.4412 151.125C58.6465 151.125 60.8518 151.187 63.057 151.104C65.3447 151.022 67.4767 151.372 69.5996 152.538C73.0036 154.396 76.673 154.767 80.3972 153.818C82.7763 153.209 84.6156 151.744 86.0156 148.989C83.4352 146.677 80.873 144.356 78.2651 142.106C78.0181 141.89 77.4508 142.065 77.0573 142.168C75.6481 142.55 74.2481 143.324 72.8389 143.334C60.5864 143.448 48.3339 143.437 36.0723 143.458C35.0474 143.458 34.0226 143.458 32.7323 143.458C38.2501 137.68 44.8018 134.677 51.8843 132.696C47.5653 130.797 43.3286 129.095 39.2109 127.083C27.2604 121.253 16.9844 112.915 9.66399 100.574C0.376247 84.9316 -2.52446 67.9267 2.307 49.6526C5.08874 39.1484 10.7254 30.6253 17.8903 23.4024C30.3441 10.8551 45.2411 4.26154 61.5015 1.25886C65.6741 0.495288 69.9382 0.402421 74.1566 0L74.3853 0.82548C74.001 1.12472 73.6441 1.49618 73.2232 1.70255C65.5643 5.47912 58.4544 10.1637 52.7902 17.2835C43.6672 28.7577 39.8972 41.8415 43.9142 56.9375C46.7966 67.7719 53.3392 75.387 61.959 80.8661C70.0114 85.9944 78.8233 88.5843 87.7908 90.6274C89.7582 91.0711 91.7346 91.4426 93.6837 91.9585C99.3662 93.4856 104.728 91.2981 110.127 90.0599C129.307 85.6642 148.431 85.6642 167.565 90.3385C170.594 91.0814 173.65 92.1545 176.706 92.2267C180.403 92.3196 184.155 91.7418 187.824 91.0298C197.029 89.2241 206.033 86.6032 214.269 81.413C223.245 75.7584 230.127 67.8957 233.183 56.6279C236.55 44.1838 234.125 32.6581 227.628 22.1229C221.928 12.8878 213.985 6.90308 204.999 2.44548C204.176 2.04306 203.416 1.48586 202.629 0.990576L202.803 0.309555C204.569 0.309555 206.344 0.175414 208.11 0.330192C225.689 1.85733 241.83 7.95556 255.812 20.2655C269.739 32.5445 277.645 48.4763 276.959 68.8244C276.446 84.1061 270.947 97.2519 261.815 108.406C252.088 120.293 239.725 127.258 226.201 131.922C225.716 132.087 225.222 132.252 224.27 132.572C231.838 134.533 238.38 137.731 244.2 143.499C242.763 143.499 241.665 143.499 240.558 143.499C228.626 143.499 216.694 143.541 204.771 143.458C202.849 143.448 200.927 142.891 198.1 142.437C196.535 143.84 194.183 145.976 191.804 148.081C190.981 148.803 191.136 149.474 191.676 150.299C193.506 153.085 196.187 153.89 198.987 154.189C202.41 154.561 205.667 153.715 208.742 151.961C209.355 151.61 210.05 151.238 210.709 151.228C216.09 151.156 221.47 151.176 226.851 151.176C227.089 151.176 227.317 151.259 228.141 151.424C224.481 154.158 221.324 156.759 217.966 158.967C212.21 162.764 206.07 165.437 199.28 165.643C194.312 165.798 189.627 164.621 185.353 161.288C181.958 166.582 179.707 172.453 178.6 178.758C177.09 187.27 175.983 195.876 174.702 204.44C174.656 204.771 174.592 205.101 174.528 205.431L174.089 205.627L174.098 205.617ZM40.7939 17.9542C38.1311 20.3171 35.1847 22.5975 32.5951 25.3113C23.3714 34.9591 17.4968 46.6499 16.8197 61.0546C16.0785 76.8109 22.1635 89.2034 32.6591 99.006C40.7024 106.518 50.0542 111.233 60.0923 114.422C67.4859 116.774 75.035 118.828 82.0992 122.161C94.1778 127.857 102.221 137.969 105.36 152.652C105.735 154.416 106.531 156.222 107.547 157.625C112.067 163.806 115.608 170.534 117.127 178.417C118.024 183.091 118.619 187.848 119.323 192.45C130.084 183.721 148.092 183.958 157.783 192.626C157.838 192.502 157.92 192.378 157.938 192.244C157.993 191.811 158.039 191.377 158.057 190.944C158.634 178.531 161.965 167.356 169.349 157.873C170.438 156.48 171.316 154.592 171.655 152.776C174.025 140.228 180.586 131.251 190.148 124.854C196.105 120.871 202.73 118.776 209.392 116.929C222.285 113.359 234.4 107.942 244.767 98.294C256.297 87.5628 261.54 73.9836 259.527 57.0716C258.246 46.3404 253.918 37.3117 247.705 29.2529C244.502 25.1049 240.778 21.7204 236.651 18.8313C236.678 19.2234 236.816 19.5123 236.971 19.7806C239.405 23.9905 242.224 27.9838 244.218 32.4414C251.813 49.4566 251.154 66.1725 241.537 81.9805C234.94 92.8149 225.286 99.2743 214.498 103.422C207.223 106.219 199.692 108.148 192.28 110.47C181.931 113.71 171.902 117.724 163.365 125.411C155.221 132.737 149.264 141.714 147.187 153.446C146.445 157.656 146.198 161.98 145.851 166.262C145.64 168.8 145.658 168.738 143.49 168.47C140.8 168.14 138.082 168.016 135.373 168.016C134.138 168.016 132.894 168.522 131.42 168.852C131.283 166.891 131.164 165.24 131.054 163.579C130.368 152.538 127.669 142.375 121.227 133.728C114.135 124.204 105.076 117.94 94.7909 114.092C86.2078 110.883 77.3959 108.427 68.6663 105.703C57.9511 102.36 48.2333 97.1487 40.2815 88.0374C26.9858 72.797 23.9021 50.0241 33.0801 31.2754C35.3494 26.6527 38.2226 22.4118 40.8122 17.9955L40.7939 17.9542ZM139.207 198.476C133.406 198.414 129.645 199.591 126.378 202.253C119.57 207.794 119.634 217.184 126.735 222.188C133.973 227.296 141.687 227.368 149.099 222.941C157.682 217.813 157.755 207.288 149.502 201.458C146.153 199.095 142.401 198.404 139.217 198.476H139.207ZM163.328 100.967C146.574 95.6319 129.947 95.5287 113.211 100.905C125.143 107.539 133.882 117.425 138.594 132.056C143.142 117.497 151.679 107.694 163.337 100.967H163.328Z"/>
</mask>
<path d="M174.098 205.617C171.984 201.758 169.88 197.909 167.629 193.792C167.949 197.775 168.095 201.582 168.58 205.328C170.85 222.88 160.235 235.602 147.516 238.811C140.552 240.566 133.598 240.452 126.79 237.976C115.526 233.879 106.064 222.622 108.251 204.513C108.663 201.139 108.819 197.733 108.819 194.246C106.897 197.96 104.975 201.675 103.054 205.39L102.615 205.338C102.111 202.222 101.645 199.106 101.096 196.01C99.7505 188.436 98.6524 180.78 96.8681 173.34C95.8615 169.131 93.6837 165.271 91.9909 161.144C80.4979 168.78 69.8193 165.891 59.4243 159.4C55.8465 157.171 52.5431 154.385 49.1209 151.847L49.3496 151.125C51.7104 151.125 54.0804 151.125 56.4412 151.125C58.6465 151.125 60.8518 151.187 63.057 151.104C65.3447 151.022 67.4767 151.372 69.5996 152.538C73.0036 154.396 76.673 154.767 80.3972 153.818C82.7763 153.209 84.6156 151.744 86.0156 148.989C83.4352 146.677 80.873 144.356 78.2651 142.106C78.0181 141.89 77.4508 142.065 77.0573 142.168C75.6481 142.55 74.2481 143.324 72.8389 143.334C60.5864 143.448 48.3339 143.437 36.0723 143.458C35.0474 143.458 34.0226 143.458 32.7323 143.458C38.2501 137.68 44.8018 134.677 51.8843 132.696C47.5653 130.797 43.3286 129.095 39.2109 127.083C27.2604 121.253 16.9844 112.915 9.66399 100.574C0.376247 84.9316 -2.52446 67.9267 2.307 49.6526C5.08874 39.1484 10.7254 30.6253 17.8903 23.4024C30.3441 10.8551 45.2411 4.26154 61.5015 1.25886C65.6741 0.495288 69.9382 0.402421 74.1566 0L74.3853 0.82548C74.001 1.12472 73.6441 1.49618 73.2232 1.70255C65.5643 5.47912 58.4544 10.1637 52.7902 17.2835C43.6672 28.7577 39.8972 41.8415 43.9142 56.9375C46.7966 67.7719 53.3392 75.387 61.959 80.8661C70.0114 85.9944 78.8233 88.5843 87.7908 90.6274C89.7582 91.0711 91.7346 91.4426 93.6837 91.9585C99.3662 93.4856 104.728 91.2981 110.127 90.0599C129.307 85.6642 148.431 85.6642 167.565 90.3385C170.594 91.0814 173.65 92.1545 176.706 92.2267C180.403 92.3196 184.155 91.7418 187.824 91.0298C197.029 89.2241 206.033 86.6032 214.269 81.413C223.245 75.7584 230.127 67.8957 233.183 56.6279C236.55 44.1838 234.125 32.6581 227.628 22.1229C221.928 12.8878 213.985 6.90308 204.999 2.44548C204.176 2.04306 203.416 1.48586 202.629 0.990576L202.803 0.309555C204.569 0.309555 206.344 0.175414 208.11 0.330192C225.689 1.85733 241.83 7.95556 255.812 20.2655C269.739 32.5445 277.645 48.4763 276.959 68.8244C276.446 84.1061 270.947 97.2519 261.815 108.406C252.088 120.293 239.725 127.258 226.201 131.922C225.716 132.087 225.222 132.252 224.27 132.572C231.838 134.533 238.38 137.731 244.2 143.499C242.763 143.499 241.665 143.499 240.558 143.499C228.626 143.499 216.694 143.541 204.771 143.458C202.849 143.448 200.927 142.891 198.1 142.437C196.535 143.84 194.183 145.976 191.804 148.081C190.981 148.803 191.136 149.474 191.676 150.299C193.506 153.085 196.187 153.89 198.987 154.189C202.41 154.561 205.667 153.715 208.742 151.961C209.355 151.61 210.05 151.238 210.709 151.228C216.09 151.156 221.47 151.176 226.851 151.176C227.089 151.176 227.317 151.259 228.141 151.424C224.481 154.158 221.324 156.759 217.966 158.967C212.21 162.764 206.07 165.437 199.28 165.643C194.312 165.798 189.627 164.621 185.353 161.288C181.958 166.582 179.707 172.453 178.6 178.758C177.09 187.27 175.983 195.876 174.702 204.44C174.656 204.771 174.592 205.101 174.528 205.431L174.089 205.627L174.098 205.617ZM40.7939 17.9542C38.1311 20.3171 35.1847 22.5975 32.5951 25.3113C23.3714 34.9591 17.4968 46.6499 16.8197 61.0546C16.0785 76.8109 22.1635 89.2034 32.6591 99.006C40.7024 106.518 50.0542 111.233 60.0923 114.422C67.4859 116.774 75.035 118.828 82.0992 122.161C94.1778 127.857 102.221 137.969 105.36 152.652C105.735 154.416 106.531 156.222 107.547 157.625C112.067 163.806 115.608 170.534 117.127 178.417C118.024 183.091 118.619 187.848 119.323 192.45C130.084 183.721 148.092 183.958 157.783 192.626C157.838 192.502 157.92 192.378 157.938 192.244C157.993 191.811 158.039 191.377 158.057 190.944C158.634 178.531 161.965 167.356 169.349 157.873C170.438 156.48 171.316 154.592 171.655 152.776C174.025 140.228 180.586 131.251 190.148 124.854C196.105 120.871 202.73 118.776 209.392 116.929C222.285 113.359 234.4 107.942 244.767 98.294C256.297 87.5628 261.54 73.9836 259.527 57.0716C258.246 46.3404 253.918 37.3117 247.705 29.2529C244.502 25.1049 240.778 21.7204 236.651 18.8313C236.678 19.2234 236.816 19.5123 236.971 19.7806C239.405 23.9905 242.224 27.9838 244.218 32.4414C251.813 49.4566 251.154 66.1725 241.537 81.9805C234.94 92.8149 225.286 99.2743 214.498 103.422C207.223 106.219 199.692 108.148 192.28 110.47C181.931 113.71 171.902 117.724 163.365 125.411C155.221 132.737 149.264 141.714 147.187 153.446C146.445 157.656 146.198 161.98 145.851 166.262C145.64 168.8 145.658 168.738 143.49 168.47C140.8 168.14 138.082 168.016 135.373 168.016C134.138 168.016 132.894 168.522 131.42 168.852C131.283 166.891 131.164 165.24 131.054 163.579C130.368 152.538 127.669 142.375 121.227 133.728C114.135 124.204 105.076 117.94 94.7909 114.092C86.2078 110.883 77.3959 108.427 68.6663 105.703C57.9511 102.36 48.2333 97.1487 40.2815 88.0374C26.9858 72.797 23.9021 50.0241 33.0801 31.2754C35.3494 26.6527 38.2226 22.4118 40.8122 17.9955L40.7939 17.9542ZM139.207 198.476C133.406 198.414 129.645 199.591 126.378 202.253C119.57 207.794 119.634 217.184 126.735 222.188C133.973 227.296 141.687 227.368 149.099 222.941C157.682 217.813 157.755 207.288 149.502 201.458C146.153 199.095 142.401 198.404 139.217 198.476H139.207ZM163.328 100.967C146.574 95.6319 129.947 95.5287 113.211 100.905C125.143 107.539 133.882 117.425 138.594 132.056C143.142 117.497 151.679 107.694 163.337 100.967H163.328Z" fill="black" stroke="black" stroke-opacity="0.05" stroke-width="2" mask="url(#path-1-inside-1_1_2883)"/>
</svg>
