<svg width="79" height="86" viewBox="0 0 79 86" fill="none" xmlns="http://www.w3.org/2000/svg">
<path id="Vector" d="M36.123 23.0103H42.7949C43.3349 21.2243 43.7323 19.4127 44.4227 17.7216C48.4452 7.84113 55.7768 2.06814 66.2062 0.261684C67.4493 0.0464457 68.7358 0.0541328 70.0045 0.0259469C71.4947 -0.00480137 72.6462 0.863837 73.0079 2.1937C73.3773 3.55943 72.7456 4.84574 71.4336 5.66825C69.7395 6.72907 67.9639 7.71045 66.4507 8.99419C61.0756 13.5552 58.2912 19.4717 57.8606 26.5079C57.8377 26.8769 58.0925 27.3586 58.3676 27.6379C64.7439 34.0668 71.1406 40.4753 77.5399 46.8812C79.532 48.8747 79.5269 49.5307 77.2699 51.209C72.7965 54.5324 67.9945 55.0346 62.9046 52.7848C62.7594 52.7208 62.6193 52.6465 62.4716 52.5875C62.4155 52.5645 62.3467 52.5747 62.3442 52.5747C60.7597 57.3945 59.1879 62.2041 57.5957 67.0059C56.2328 71.1159 53.5656 74.0293 49.6068 75.7538C49.2629 75.905 48.8935 76.2048 48.7305 76.5327C46.8377 80.3814 43.6839 83.0591 40.4359 85.6522C39.822 86.1416 39.1239 86.1031 38.5024 85.6086C35.2543 83.0129 32.1464 80.2892 30.2231 76.4712C30.0702 76.1689 29.7238 75.9024 29.4028 75.7615C25.3854 73.996 22.7055 71.0416 21.3553 66.8368C19.9746 62.532 18.5403 58.2452 17.1367 53.9456C16.9889 53.4946 16.8921 53.0283 16.8055 52.7003C15.1471 53.1513 13.5626 53.7739 11.9245 53.9866C8.03963 54.4914 4.49609 53.4895 1.40346 51.0322C0.985669 50.7016 0.62138 50.2737 0.315682 49.8356C-0.109746 49.2283 -0.137769 48.5979 0.432866 48.0163C1.18947 47.2399 1.9104 46.4302 2.67465 45.6615C8.61027 39.6938 14.5459 33.726 20.507 27.7814C21.0445 27.2458 21.1693 26.7359 21.1107 26.0057C20.5376 18.8849 17.5417 13.0299 12.0315 8.53297C10.6865 7.43628 9.12741 6.59839 7.63458 5.69131C6.4067 4.94567 5.75455 3.79005 5.95325 2.52168C6.13412 1.35837 7.07159 0.248872 8.2205 0.0900058C9.15543 -0.038112 10.126 -0.0124884 11.0737 0.0618199C22.2928 0.950957 31.828 8.60727 35.183 19.4153C35.5422 20.5683 35.7969 21.7547 36.1205 23.0103H36.123ZM37.9725 73.6706C37.9725 72.105 38.0107 70.6393 37.9445 69.1762C37.9292 68.8277 37.6311 68.3845 37.3331 68.1769C36.5281 67.6183 35.6008 67.2314 34.8111 66.6523C33.4838 65.6812 33.0431 64.0336 33.5679 62.4526C34.0927 60.8742 35.4276 59.8851 37.0809 59.8723C38.6374 59.8621 40.1964 59.8646 41.7529 59.8723C43.5744 59.88 44.9449 60.887 45.4646 62.5858C45.9512 64.1771 45.3678 65.8862 43.9259 66.8675C43.1948 67.3672 42.372 67.731 41.6179 68.1974C41.3785 68.3435 41.06 68.6176 41.0524 68.8406C41.004 70.4267 41.0269 72.0153 41.0269 73.6808C42.1682 73.6808 43.2101 73.6911 44.252 73.6808C49.0973 73.6245 52.9924 70.8136 54.5744 66.2013C55.7309 62.8293 56.8748 59.4521 57.9702 56.057C58.4466 54.5759 59.0376 53.0641 59.1267 51.5395C59.3458 47.8139 59.356 44.0703 59.3433 40.3369C59.3382 38.9789 59.17 37.5849 58.8414 36.2679C57.3562 30.3565 51.976 26.2491 45.5003 26.1158C41.3402 26.0313 37.1751 26.0953 33.0126 26.1261C32.256 26.1312 31.4892 26.2388 30.7478 26.3977C24.0913 27.8377 19.7988 33.1546 19.6689 40.1909C19.6077 43.4809 19.6485 46.7736 19.6816 50.0662C19.6892 50.8246 19.7453 51.619 19.972 52.3364C21.554 57.31 23.1054 62.2963 24.8428 67.216C25.7115 69.6784 27.5686 71.4183 29.9199 72.5637C32.4394 73.791 35.1346 73.7551 37.9776 73.6731L37.9725 73.6706ZM9.80249 3.20583C13.9447 5.53245 17.3303 8.64058 19.9032 12.6276C22.4609 16.5941 23.8773 20.9578 24.2773 25.7571C26.9674 24.0455 29.8053 23.1768 32.8495 22.9898C31.2599 13.0683 22.1527 3.51331 9.80249 3.20583ZM69.3752 3.1264C55.7233 3.59275 47.2071 14.5033 46.211 23.0205C49.268 23.141 52.0779 24.0993 54.6814 25.7084C55.7437 15.6537 60.5788 8.20498 69.3727 3.12383L69.3752 3.1264ZM62.064 36.0885C62.1633 37.1698 62.3467 38.3895 62.3697 39.6118C62.4181 42.4201 62.4079 45.2285 62.3748 48.0368C62.3671 48.6492 62.5276 49.0284 63.06 49.3487C65.5285 50.8426 68.1626 51.4012 70.9929 50.8016C72.4781 50.4864 73.8766 49.9278 74.9415 49.0387C70.5929 44.6647 66.2953 40.3446 62.064 36.0885ZM16.9252 36.1372C12.7041 40.3805 8.39628 44.7134 4.09359 49.0361C7.01809 51.5472 12.2684 51.7035 15.9343 49.3487C16.4565 49.0131 16.6221 48.6441 16.617 48.0342C16.5864 45.1951 16.5737 42.3535 16.6221 39.5144C16.6425 38.3255 16.8284 37.1417 16.9227 36.1372H16.9252ZM44.9042 76.8377H34.0545C35.4938 78.8824 37.1063 80.5813 39.0017 82.0008C39.2004 82.1494 39.6385 82.2519 39.7914 82.1392C41.7631 80.6812 43.4598 78.9516 44.9042 76.8377ZM39.4093 62.942C38.7138 62.942 38.0107 62.8856 37.3229 62.9676C37.0121 63.0035 36.5459 63.2674 36.4899 63.5109C36.4313 63.7543 36.7217 64.2053 36.9815 64.3795C37.6337 64.8202 38.3444 65.1815 39.0552 65.5249C39.2793 65.6325 39.6258 65.6889 39.8321 65.5915C40.576 65.243 41.3148 64.8663 41.9873 64.4C42.2242 64.2334 42.4 63.7568 42.3491 63.4647C42.3134 63.2546 41.8701 62.9958 41.5874 62.9676C40.8664 62.8985 40.1353 62.9446 39.4067 62.9446L39.4093 62.942Z" fill="#90010A"/>
</svg>
