<svg width="22" height="23" viewBox="0 0 22 23" fill="none" xmlns="http://www.w3.org/2000/svg">
<g id="Group 36684">
<path id="Vector" d="M22 11.8698C21.9833 11.9108 21.9615 11.9485 21.95 11.992C21.7595 12.6947 21.378 13.0792 20.8467 13.0841C20.1811 13.0899 19.5155 13.0858 18.8499 13.0858C12.9806 13.0858 7.1119 13.0849 1.24262 13.0882C0.814004 13.0882 0.450796 12.9095 0.202346 12.3921C-0.0346282 11.8985 -0.0638914 11.3598 0.116852 10.8211C0.306202 10.2579 0.638425 9.97253 1.07106 9.9217C1.15655 9.91186 1.24262 9.9176 1.32869 9.9176C7.73446 9.9176 14.1402 9.92498 20.546 9.90612C21.2317 9.90448 21.7463 10.1628 21.9994 11.1335V11.8698H22Z" fill="white"/>
<path id="Vector_2" d="M21.9998 2.41861C21.8449 2.99665 21.6068 3.45663 21.1558 3.60175C21.0732 3.62881 20.9865 3.64275 20.9016 3.64275C16.1369 3.64439 11.3721 3.64521 6.60799 3.64275C6.05543 3.64275 5.59009 3.07044 5.51378 2.31366C5.43345 1.51424 5.77026 0.769754 6.31823 0.559035C6.44044 0.5123 6.57241 0.504921 6.6998 0.504921C11.4008 0.504101 16.1013 0.5082 20.8012 0.500001C21.4266 0.499181 21.7984 0.938657 21.9998 1.74382V2.41861Z" fill="white"/>
<path id="Vector_3" d="M22 21.2603C21.9747 21.3423 21.9489 21.4243 21.9236 21.5071C21.7383 22.1155 21.4181 22.4533 20.9511 22.4935C20.8868 22.4992 20.8225 22.4992 20.7577 22.4992C17.552 22.4992 14.3468 22.5041 11.141 22.4894C10.9012 22.4885 10.6378 22.4074 10.4272 22.2499C9.99574 21.9261 9.81328 21.189 9.93951 20.5084C10.0623 19.8468 10.4972 19.3606 10.985 19.3606C14.298 19.3581 17.6105 19.3565 20.9235 19.363C21.3912 19.3638 21.7165 19.7139 21.9133 20.3133C21.9431 20.4035 21.9707 20.4945 21.9994 20.5855V21.2603H22Z" fill="white"/>
</g>
</svg>
