<svg width="28" height="25" viewBox="0 0 28 25" fill="none" xmlns="http://www.w3.org/2000/svg">
<g id="Group 36691">
<path id="Vector" d="M27.1131 13.964L27.1114 13.9731C27.0867 14.1061 27.0632 14.2404 27.0396 14.3754C26.9875 14.6736 26.9348 14.9748 26.8676 15.2707C26.6332 16.3042 26.2044 17.2557 25.6115 18.1289M27.1131 13.964L25.5288 18.0727M27.1131 13.964V13.9548M27.1131 13.964V13.9548M25.6115 18.1289L25.5288 18.0727M25.6115 18.1289C25.6115 18.1289 25.6115 18.1288 25.6116 18.1288L25.5288 18.0727M25.6115 18.1289C25.5674 18.194 25.5458 18.2471 25.5386 18.2984C25.5314 18.3497 25.5374 18.4078 25.5622 18.4844L25.467 18.5151C25.4114 18.3427 25.429 18.22 25.5288 18.0727M27.1131 13.9548V12.526V12.5138L27.1101 12.5019C27.1046 12.4797 27.0975 12.4552 27.0912 12.4332C27.0879 12.4218 27.0848 12.411 27.0822 12.4016C27.0737 12.3706 27.0676 12.3442 27.0651 12.3195L27.0651 12.3193C26.9065 10.7999 26.3831 9.41387 25.4967 8.1774L25.4154 8.23566L25.4967 8.17739C23.896 5.94521 21.709 4.62708 19.0354 4.1346L19.0354 4.13459M27.1131 13.9548L19.0354 4.13459M19.0354 4.13459C18.5981 4.05433 18.2787 3.88814 17.95 3.59278L17.8832 3.66717L19.0354 4.13459ZM24.4496 21.3463C24.2125 21.2253 23.9753 21.1053 23.7383 20.9855C23.1229 20.6743 22.5089 20.3638 21.9022 20.0384L21.9021 20.0384C21.7096 19.9354 21.5235 19.8828 21.3329 19.8792C21.1428 19.8756 20.9546 19.9209 20.7578 20.0045C17.9739 21.1872 15.2407 21.0821 12.6183 19.5662L12.6183 19.5662C10.6549 18.4317 9.3671 16.7452 8.94868 14.482C8.55256 12.3375 9.10197 10.41 10.4784 8.73475C11.8878 7.02019 13.7299 6.05918 15.9181 5.77931L15.9055 5.68011L15.9181 5.77931C18.5181 5.44666 20.8499 6.09367 22.8464 7.81448C24.2477 9.02336 25.1055 10.558 25.3304 12.4086C25.5552 14.2621 25.0803 15.9449 23.9729 17.4413C23.8364 17.6258 23.7493 17.8095 23.7169 18.0056C23.6845 18.202 23.7082 18.403 23.7814 18.62C24.0117 19.3036 24.2269 19.992 24.4426 20.6816C24.5241 20.9424 24.6057 21.2033 24.6882 21.4642C24.6034 21.423 24.5266 21.3855 24.4496 21.3463ZM24.4496 21.3463L24.4042 21.4354M24.4496 21.3463C24.4496 21.3463 24.4496 21.3463 24.4496 21.3463L24.4042 21.4354M24.4042 21.4354C24.1678 21.3148 23.931 21.195 23.6942 21.0753C23.0785 20.7639 22.4628 20.4525 21.855 20.1266L24.7225 21.5921C24.6995 21.581 24.6772 21.5701 24.6553 21.5594C24.5659 21.5159 24.4846 21.4764 24.4042 21.4354ZM4.15033 15.4838C3.92665 16.1513 3.71573 16.8232 3.50477 17.4951C3.42384 17.7529 3.3429 18.0108 3.26123 18.2684C3.24185 18.329 3.22447 18.3899 3.20371 18.4626C3.20352 18.4633 3.20332 18.464 3.20313 18.4646C3.22559 18.4541 3.24675 18.4442 3.26691 18.4347C3.28659 18.4255 3.30532 18.4167 3.32334 18.4082M4.15033 15.4838L7.97278 9.69169C6.84546 12.1934 6.93708 14.6985 8.13974 17.1634C8.16333 17.2125 8.18832 17.2608 8.22323 17.3281C8.1761 17.3107 8.13003 17.2941 8.08492 17.278M4.15033 15.4838C4.27861 15.0993 4.21956 14.7878 3.97726 14.4647L4.15033 15.4838ZM3.32334 18.4082C3.31605 18.4333 3.30855 18.4596 3.30046 18.488C3.29609 18.5033 3.29155 18.5192 3.28679 18.5358C3.29362 18.5326 3.30036 18.5295 3.307 18.5264C3.38041 18.492 3.44217 18.4631 3.50285 18.432C3.74581 18.308 3.98952 18.1854 4.23324 18.0628C4.85825 17.7483 5.48336 17.4337 6.09617 17.0973C6.51018 16.8703 6.87668 16.8539 7.29272 17.07C7.49574 17.1757 7.71364 17.2527 7.95009 17.3364C8.01605 17.3597 8.08345 17.3835 8.15238 17.4086C8.14793 17.4001 8.14363 17.3918 8.13946 17.3837C8.11851 17.3434 8.10082 17.3093 8.08492 17.278M3.32334 18.4082C3.37122 18.3857 3.41418 18.365 3.45721 18.343L3.45741 18.3429C3.70147 18.2184 3.94583 18.0954 4.18992 17.9726C4.81432 17.6584 5.43693 17.3451 6.04805 17.0096L6.04809 17.0096C6.26517 16.8906 6.4758 16.8235 6.69089 16.8175C6.90639 16.8115 7.11877 16.867 7.33882 16.9813L7.33889 16.9813C7.53563 17.0837 7.74296 17.157 7.97544 17.2392C8.01131 17.2518 8.04779 17.2647 8.08492 17.278M3.32334 18.4082C3.33445 18.37 3.34505 18.3345 3.35648 18.2988L3.35655 18.2986C3.43841 18.0404 3.51946 17.7822 3.60045 17.5242C3.81131 16.8526 4.02179 16.1821 4.24515 15.5155L4.24519 15.5154C4.31349 15.3107 4.33367 15.1198 4.30127 14.934C4.26892 14.7486 4.18542 14.5756 4.05728 14.4047C3.04142 13.0493 2.53801 11.5189 2.64297 9.82809L2.64297 9.82807C2.79426 7.38542 3.9724 5.51236 5.95827 4.13864L5.95828 4.13863C8.79762 2.17416 12.7452 2.126 15.6477 3.99048C15.6477 3.99051 15.6478 3.99054 15.6478 3.99057L7.88161 9.65062M8.08492 17.278C8.07232 17.2532 8.06083 17.2301 8.04972 17.2069C6.83487 14.7169 6.74149 12.1807 7.88161 9.65062M7.88161 9.65062C9.03042 7.10036 11.0264 5.45321 13.6217 4.54148L7.88161 9.65062ZM11.3026 20.7966L11.3561 20.7121L11.3025 20.7965C11.3025 20.7966 11.3025 20.7966 11.3026 20.7966ZM1.16404 19.8007L1.06871 19.7705C1.0687 19.7706 1.06869 19.7706 1.06868 19.7706L1.16404 19.8007ZM2.3124 20.766L2.35812 20.8549C2.96396 20.5435 3.57142 20.2336 4.17904 19.9235C4.96549 19.5222 5.75222 19.1207 6.5361 18.7159C6.61102 18.6775 6.67266 18.6591 6.73096 18.6557C6.7888 18.6523 6.85064 18.6633 6.92656 18.6947C6.92661 18.6947 6.92665 18.6948 6.92669 18.6948L6.96491 18.6024C7.76442 18.9343 8.59583 19.1511 9.45439 19.269L2.3124 20.766ZM9.73734 19.5271L9.79985 19.449L9.73713 19.5269C9.7372 19.5269 9.73727 19.527 9.73734 19.5271ZM15.6761 4.0093C15.5109 4.04893 15.3443 4.08684 15.1772 4.12485C14.6538 4.24395 14.1257 4.36409 13.6217 4.54146L15.6761 4.0093Z" fill="black" stroke="black" stroke-width="0.2"/>
<path id="Vector_2" d="M13.9644 14.1041C13.4816 14.0859 13.1232 13.6766 13.1459 13.1856L13.146 13.1855C13.1684 12.716 13.5704 12.359 14.0463 12.3766L14.0426 12.4766L14.0463 12.3766C14.5172 12.3937 14.879 12.7912 14.8668 13.2671L13.9644 14.1041ZM13.9644 14.1041L13.9644 14.1041M13.9644 14.1041L13.9644 14.1041M13.9644 14.1041C14.4529 14.1217 14.8545 13.7523 14.8668 13.2671L13.9644 14.1041Z" fill="black" stroke="black" stroke-width="0.2"/>
<path id="Vector_3" d="M17.0414 14.1042H17.0414C17.5282 14.1096 17.9156 13.7257 17.9156 13.2387C17.9156 12.7631 17.5408 12.3813 17.0667 12.3759L17.0667 12.3759C16.59 12.3705 16.2039 12.7391 16.1939 13.2134L16.1939 13.2135C16.184 13.7047 16.5549 14.0987 17.0414 14.1042Z" fill="black" stroke="black" stroke-width="0.2"/>
<path id="Vector_4" d="M20.1 14.1049C20.5866 14.1056 20.9689 13.7159 20.9636 13.228L20.9636 13.228C20.9582 12.7527 20.5785 12.3767 20.1036 12.3759L20.0034 12.3757V12.3819C19.5752 12.4289 19.2476 12.7829 19.2419 13.2244L19.2419 13.2245C19.2358 13.7156 19.6119 14.1048 20.1 14.1049ZM20.1 14.1049C20.1 14.1049 20.1 14.1049 20.1 14.1049V14.0049L20.0999 14.1049C20.0999 14.1049 20.0999 14.1049 20.1 14.1049Z" fill="black" stroke="black" stroke-width="0.2"/>
</g>
</svg>
