<svg width="14" height="29" viewBox="0 0 14 29" fill="none" xmlns="http://www.w3.org/2000/svg">
<path d="M6.99093 5.73591H6.99092C6.58149 5.73591 6.18758 5.73658 5.80372 5.73724C5.06374 5.7385 4.3611 5.7397 3.65656 5.73593C2.07682 5.7236 1.00133 4.6083 1 3.38033V3.38032C0.998672 2.15443 2.07114 1.02823 3.64936 1.01343L3.64966 1.01343C5.82334 0.992398 7.99643 1.00003 10.1763 1.00963L10.1774 1.00963C11.1628 1.01285 11.8462 1.29728 12.2764 1.70464C12.6997 2.10548 12.9858 2.72691 12.9874 3.62884V3.62916C12.9973 8.2894 12.995 12.9495 12.9928 17.6111C12.9923 18.6472 12.9918 19.6834 12.9914 20.7197V20.72C12.9914 21.1699 12.9936 21.6155 12.9958 22.0581C13.0019 23.3135 13.0079 24.5453 12.9639 25.7835L12.9639 25.7847C12.9254 26.9082 12.0429 27.8474 10.669 27.9887L10.6683 27.9888C9.56117 28.1034 8.40003 27.3322 8.0991 26.28C8.01341 25.9776 7.99873 25.6147 7.99873 25.1338L7.99873 25.1325C7.99204 20.2861 7.99232 15.4398 7.99259 10.5915C7.99265 9.62174 7.99271 8.65192 7.99271 7.682V7.68035V7.67869V7.67704V7.67539V7.67374V7.67209V7.67043V7.66878V7.66713V7.66548V7.66382V7.66217V7.66052V7.65887V7.65721V7.65556V7.65391V7.65226V7.6506V7.64895V7.6473V7.64564V7.64399V7.64234V7.64068V7.63903V7.63738V7.63572V7.63407V7.63242V7.63076V7.62911V7.62745V7.6258V7.62414V7.62249V7.62083V7.61918V7.61752V7.61587V7.61421V7.61256V7.6109V7.60924V7.60759V7.60593V7.60428V7.60262V7.60096V7.5993V7.59765V7.59599V7.59433V7.59267V7.59101V7.58935V7.5877V7.58604V7.58438V7.58272V7.58106V7.5794V7.57774V7.57608V7.57442V7.57275V7.57109V7.56943V7.56777V7.56611V7.56444V7.56278V7.56112V7.55945V7.55779V7.55612V7.55446V7.5528V7.55113V7.54946V7.5478V7.54613V7.54447V7.5428V7.54113V7.53946V7.5378V7.53613V7.53446V7.53279V7.53112V7.52945V7.52778V7.52611V7.52444V7.52276V7.52109V7.51942V7.51775V7.51607V7.5144V7.51273V7.51105V7.50938V7.5077V7.50602V7.50435V7.50267V7.50099V7.49932V7.49764V7.49596V7.49428V7.4926V7.49092V7.48924V7.48756V7.48588V7.48419V7.48251V7.48083V7.47915V7.47746V7.47578V7.47409V7.4724V7.47072V7.46903V7.46734V7.46566V7.46397V7.46228V7.46059V7.4589V7.45721V7.45552V7.45382V7.45213V7.45044V7.44874V7.44705V7.44536V7.44366V7.44196V7.44027V7.43857V7.43687V7.43517V7.43347V7.43177V7.43007V7.42837V7.42667V7.42497V7.42326V7.42156V7.41986V7.41815V7.41644V7.41474V7.41303V7.41132V7.40961V7.4079V7.40619V7.40448V7.40277V7.40106V7.39935V7.39763V7.39592V7.3942V7.39249V7.39077V7.38905V7.38734V7.38562V7.3839V7.38218V7.38046V7.37873V7.37701V7.37529V7.37356V7.37184V7.37011V7.36839V7.36666V7.36493V7.3632V7.36147V7.35974V7.35801V7.35628V7.35454V7.35281V7.35108V7.34934V7.3476V7.34587V7.34413V7.34239V7.34065V7.33891V7.33717V7.33542V7.33368V7.33194V7.33019V7.32844V7.3267V7.32495V7.3232V7.32145V7.3197V7.31795V7.3162V7.31444V7.31269V7.31093V7.30918V7.30742V7.30566V7.3039V7.30214V7.30038V7.29862V7.29686V7.29509V7.29333V7.29156V7.2898V7.28803V7.28626V7.28449V7.28272V7.28095V7.27917V7.2774V7.27562V7.27385V7.27207V7.27029V7.26851V7.26673V7.26495V7.26317V7.26139V7.2596V7.25782V7.25603V7.25424V7.25246V7.25067V7.24887V7.24708V7.24529V7.2435V7.2417V7.2399V7.23811V7.23631V7.23451V7.23271V7.23091V7.2291V7.2273V7.22549V7.22369V7.22188V7.22007V7.21826V7.21645V7.21464V7.21282V7.21101V7.20919V7.20738V7.20556V7.20374V7.20192V7.2001V7.19827V7.19645V7.19462V7.1928V7.19097V7.18914V7.18731V7.18548V7.18364V7.18181V7.17998V7.17814V7.1763V7.17446V7.17262V7.17078V7.16894V7.16709V7.16525V7.1634V7.16155V7.1597V7.15785V7.156V7.15415V7.15229V7.15044V7.14858V7.14672V7.14486V7.143V7.14114V7.13927V7.13741V7.13554V7.13367V7.1318V7.12993V7.12806V7.12619V7.12431V7.12244V7.12056V7.11868V7.1168V7.11492V7.11303V7.11115V7.10926V7.10738V7.10549V7.1036V7.10171V7.09981V7.09792V7.09602V7.09412V7.09223V7.09033V7.08842V7.08652V7.08462V7.08271V7.0808V7.07889V7.07698V7.07507V7.07316V7.07124V7.06932V7.06741V7.06549V7.06356V7.06164V7.05972V7.05779V7.05586V7.05394V7.052V7.05007V7.04814V7.0462V7.04427V7.04233V7.04039V7.03845V7.03651V7.03456V7.03262V7.03067V7.02872V7.02677V7.02481V7.02286V7.02091V7.01895V7.01699V7.01503V7.01307V7.0111V7.00914V7.00717V7.0052V7.00323V7.00126V6.99929V6.99731V6.99533V6.99335V6.99137V6.98939V6.98741V6.98542V6.98344V6.98145V6.97946V6.97746V6.97547V6.97347V6.97148V6.96948V6.96748V6.96548V6.96347V6.96146V6.95946V6.95745V6.95544V6.95342V6.95141V6.94939V6.94737V6.94535V6.94333V6.94131V6.93928V6.93726V6.93523V6.9332V6.93116V6.92913V6.92709V6.92506V6.92302V6.92097V6.91893V6.91688V6.91484V6.91279V6.91074V6.90869V6.90663V6.90457V6.90252V6.90046V6.89839V6.89633V6.89426V6.8922V6.89013V6.88806V6.88598V6.88391V6.88183V6.87975V6.87767V6.87559V6.8735V6.87142V6.86933V6.86724V6.86514V6.86305V6.86095V6.85885V6.85675V6.85465V6.85255V6.85044V6.84833V6.84622V6.84411V6.842V6.83988V6.83776V6.83564V6.83352V6.8314V6.82927V6.82714V6.82501V6.82288V6.82074V6.81861V6.81647V6.81433V6.81219V6.81004V6.8079V6.80704C8.03193 6.25286 7.59273 5.73591 6.99093 5.73591ZM5.99132 6.73692C5.99152 6.58408 6.0278 6.42683 6.10698 6.27554C6.03136 6.42002 5.99325 6.57855 5.99271 6.73692C5.99225 6.73692 5.99178 6.73692 5.99132 6.73692ZM7.87896 7.20295C7.87951 7.2019 7.88005 7.20085 7.8806 7.1998C7.88005 7.20085 7.87951 7.2019 7.87896 7.20295Z" stroke="white" stroke-width="2"/>
</svg>
