<svg width="89" height="86" viewBox="0 0 89 86" fill="none" xmlns="http://www.w3.org/2000/svg">
<g id="Group 36700">
<path id="Vector" d="M67.7227 9.60383C70.6758 9.67708 73.3765 10.5407 75.6859 12.4163C78.1899 14.45 79.1846 17.2201 79.3118 20.3544C79.333 20.8903 79.3812 21.2315 79.973 21.4821C85.8138 23.9438 87.5776 29.7056 85.7926 35.1223C85.5652 35.8124 85.6596 36.1941 86.1454 36.7396C89.7713 40.8359 89.7694 45.1501 86.1261 49.2463C85.6307 49.8034 85.5921 50.2005 85.808 50.8694C87.5564 56.2785 85.8235 61.9959 79.9653 64.5424C79.6742 64.6677 79.3561 65.1303 79.3484 65.4445C79.1653 72.1239 74.5986 75.694 68.6691 76.2838C67.8711 76.3629 67.5742 76.6462 67.2407 77.2901C65.4364 80.783 62.7435 83.1097 58.6973 83.5762C56.8834 83.7863 55.1562 83.4181 53.4463 82.8533C53.1398 82.7531 52.6174 82.7743 52.4189 82.9671C49.8262 85.4923 46.6648 86.1439 43.1931 85.9299C40.6447 85.7718 38.4414 84.862 36.6139 83.0943C36.1879 82.6837 35.8621 82.6471 35.3166 82.8495C29.6955 84.9391 24.1631 82.6702 21.58 77.211C21.2735 76.5614 20.9266 76.3648 20.1979 76.2896C14.2665 75.6882 9.69018 72.1278 9.50898 65.4561C9.49934 65.1361 9.19284 64.66 8.90562 64.5385C3.01659 62.0287 1.25856 56.1609 3.08791 50.7923C3.31538 50.1215 3.19008 49.7649 2.74093 49.2598C-0.90236 45.1597 -0.911998 40.8513 2.70238 36.7512C3.17852 36.2114 3.30767 35.8375 3.07249 35.1377C1.27976 29.7923 3.00695 23.9245 8.9461 21.4147C9.21405 21.3009 9.50898 20.8633 9.51476 20.5703C9.6497 13.7098 14.5306 10.1282 20.4389 9.66745C21.0461 9.61926 21.2639 9.38794 21.501 8.89638C23.0316 5.73886 25.3718 3.48349 28.8454 2.60832C31.0565 2.05123 33.2309 2.35965 35.3687 3.09795C35.6771 3.20397 36.2111 3.21168 36.398 3.0247C38.9676 0.449335 42.1425 -0.159809 45.6084 0.0329581C48.1915 0.177533 50.3987 1.12787 52.3032 2.86856C52.55 3.0941 53.0801 3.2406 53.3808 3.13651C59.5031 1.0392 64.7328 3.25409 67.474 9.14312C67.5434 9.29348 67.6301 9.4342 67.7207 9.60191L67.7227 9.60383ZM57.6197 80.5979L57.7026 80.3339C60.1007 80.3339 61.7141 79.6013 63.131 77.6351C63.877 76.6 64.461 75.4395 65.0355 74.2945C65.4191 73.5292 65.9145 73.1263 66.7993 73.1321C67.6224 73.1379 68.4494 73.0569 69.2667 72.9567C73.7061 72.415 76.5167 68.8758 76.0483 64.4364C75.8728 62.7632 76.1292 62.3834 77.7812 61.8687C81.4727 60.7198 83.3985 58.0577 83.117 54.2294C83.0245 52.9706 82.6197 51.7118 82.2014 50.507C81.8351 49.4526 82.0298 48.7394 82.8163 47.949C83.7127 47.0488 84.5069 46.0098 85.1738 44.9245C85.9333 43.6908 85.9468 42.2836 85.1796 41.0557C84.4722 39.9203 83.5951 38.8736 82.6852 37.8866C82.0491 37.1984 81.7908 36.5565 82.1474 35.664C82.4288 34.9623 82.6621 34.2356 82.8529 33.5031C83.998 29.0829 82.1397 25.5245 77.9875 24.1423C75.9731 23.4715 75.9307 23.3443 76.0752 21.245C76.2796 18.261 74.963 14.4596 70.8108 13.3917C69.5751 13.0736 68.2817 12.8963 67.0075 12.8462C65.9665 12.8057 65.3593 12.4163 64.9468 11.4891C64.5459 10.5889 64.0967 9.69636 63.557 8.87325C62.4678 7.21738 61.0375 5.95476 58.9903 5.68874C57.2265 5.45935 55.4993 5.67524 53.8685 6.45595C52.0623 7.32147 51.9755 7.29641 50.6281 5.74464C49.6006 4.56105 48.3438 3.71288 46.7901 3.45843C45.7549 3.29072 44.6909 3.2753 43.6384 3.26373C41.4601 3.24253 39.6635 4.11191 38.2351 5.73886C36.8568 7.30798 36.8665 7.26364 34.8964 6.43475C30.8772 4.74225 27.2358 5.44971 24.9226 9.44577C24.5275 10.1301 24.167 10.8395 23.8605 11.5681C23.4961 12.4356 22.9275 12.8539 21.9598 12.8308C21.1714 12.8115 20.3772 12.9079 19.5926 13.0042C15.1513 13.5498 12.3214 17.1102 12.8091 21.5245C12.9923 23.1766 12.6896 23.6257 11.08 24.1018C7.51192 25.1543 5.49943 27.8492 5.73653 31.5349C5.82135 32.8592 6.23002 34.1874 6.65989 35.4558C7.01843 36.5141 6.85265 37.2466 6.03725 38.0119C5.25076 38.7502 4.5433 39.6061 3.94765 40.5063C2.87973 42.1159 2.87202 43.8296 3.94187 45.4392C4.5568 46.3664 5.30088 47.23 6.09893 48.0069C6.8353 48.7239 7.07819 49.4333 6.68495 50.3933C6.41122 51.0622 6.17604 51.7562 6.00448 52.4578C4.85751 57.1691 6.60398 60.2341 10.974 61.8244C12.759 62.474 12.9499 62.6957 12.7879 64.6176C12.5412 67.5631 13.827 71.4839 18.0486 72.5673C19.2842 72.8834 20.5777 73.0608 21.8518 73.1128C22.8928 73.1552 23.5019 73.5465 23.9125 74.4718C24.2981 75.3431 24.7318 76.2067 25.2465 77.0067C26.7404 79.3218 28.8242 80.6558 31.6502 80.2915C32.9649 80.1218 34.2641 79.6765 35.5113 79.2042C36.3595 78.8823 37.1093 78.8014 37.6549 79.5358C39.4572 81.9666 41.8688 82.8148 44.8277 82.7338C47.353 82.6644 49.3732 81.795 50.95 79.8365C51.7693 78.8187 52.2377 78.7937 53.4367 79.2582C54.7996 79.7864 56.2241 80.1565 57.6217 80.596L57.6197 80.5979Z" fill="#90010A"/>
<path id="Vector_2" d="M16.441 31.2728C17.6978 31.2728 18.9547 31.267 20.2115 31.2728C21.6014 31.2805 21.9464 31.6197 22.4206 32.9132C22.8139 33.9869 23.2591 35.0838 23.903 36.0187C26.0774 39.1666 29.2368 40.1574 33.3698 39.1299C33.5934 39.074 33.8421 39.0625 34.0387 38.9565C35.8854 37.9618 37.3099 38.5054 38.9369 39.7507C43.2047 43.0142 45.6085 43.0084 49.8899 39.7719C51.4976 38.5574 52.8893 37.9618 54.7939 38.9179C55.5013 39.2726 56.3881 39.3092 57.2035 39.4114C62.5354 40.0803 65.2939 36.5623 66.4158 33.0501C66.9016 31.5272 67.2081 31.2728 68.8061 31.2708C71.287 31.267 73.7679 31.267 76.2469 31.2708C77.55 31.2728 78.0878 31.6602 78.2806 32.9363C79.2599 39.3979 76.6363 46.6344 67.8056 48.4541C66.6298 48.697 65.3614 48.5794 64.145 48.5003C63.2563 48.4425 62.8997 48.7259 62.6684 49.5914C61.6063 53.572 60.5268 57.5469 59.3393 61.4909C57.215 68.55 51.2797 72.8372 43.9006 72.7485C37.2405 72.6675 31.2705 67.9158 29.3679 61.1651C28.2961 57.3599 27.1954 53.5605 26.2143 49.7302C25.954 48.7124 25.5377 48.4175 24.5468 48.5061C21.931 48.7394 19.4308 48.3211 17.0713 47.0874C12.0555 44.4638 10.1009 39.5001 10.4074 34.5479C10.6079 31.319 10.7601 31.2689 13.9581 31.2689C14.7851 31.2689 15.6121 31.2689 16.4391 31.2689L16.441 31.2728ZM42.8423 69.3346C42.8423 68.4421 42.8192 67.5515 42.852 66.6628C42.8713 66.1578 42.719 65.9188 42.2081 65.7414C40.8588 65.273 39.7851 64.4055 39.0275 63.1815C38.4781 62.2947 38.6092 61.435 39.3513 60.8953C40.0569 60.3825 41.1113 60.4847 41.6086 61.3193C42.8597 63.4166 46.0018 63.407 47.2471 61.3251C47.7463 60.4904 48.795 60.3825 49.5024 60.8933C50.2465 61.4292 50.3795 62.2928 49.8359 63.1776C49.0803 64.4055 47.9854 65.2132 46.6726 65.7761C46.4066 65.8898 46.0693 66.2137 46.05 66.4624C45.9767 67.4108 46.0211 68.3688 46.0211 69.3674C46.262 69.3539 46.4239 69.3674 46.5762 69.3346C51.594 68.2898 54.8941 65.3231 56.3225 60.4056C57.9688 54.7402 59.5147 49.0459 61.0993 43.3631C61.1803 43.0701 61.2246 42.7655 61.3017 42.3838C58.5008 42.9544 55.8734 42.7366 53.2749 41.9116C52.9799 41.8171 52.5366 41.9945 52.2301 42.1699C50.8826 42.9352 49.6104 43.8469 48.2205 44.5158C45.6625 45.7476 43.0293 45.7361 40.4867 44.4503C39.1374 43.7679 37.8863 42.8908 36.5774 42.1255C36.3172 41.9733 35.9413 41.7786 35.7061 41.8595C33.0594 42.7655 30.3665 42.9371 27.6369 42.4147C27.6022 42.5477 27.5598 42.6132 27.5733 42.6653C29.2928 48.8242 30.9255 55.0101 32.7683 61.1324C34.1119 65.5911 38.5263 69.0589 42.8423 69.3365V69.3346ZM24.9169 45.2002C24.4929 43.6696 24.0996 42.2123 23.6736 40.7646C23.6042 40.5314 23.4076 40.3097 23.2206 40.14C21.6515 38.7155 20.4891 37.0191 19.7007 35.051C19.6024 34.8081 19.2862 34.492 19.0626 34.4862C17.2892 34.4399 15.5138 34.4611 13.7635 34.4611C12.7167 39.2842 16.8805 46.3645 24.9189 45.2021L24.9169 45.2002ZM63.9387 45.1751C71.8268 46.4763 76.2257 39.2784 75.0633 34.4592C73.3361 34.4592 71.5877 34.4341 69.8432 34.4881C69.5965 34.4958 69.2437 34.837 69.1357 35.103C68.3685 37.0076 67.2505 38.6538 65.7392 40.0417C65.5483 40.2171 65.3112 40.408 65.2418 40.6374C64.7869 42.139 64.3705 43.6542 63.9387 45.1751Z" fill="#90010A"/>
</g>
</svg>
