<svg width="27" height="25" viewBox="0 0 27 25" fill="none" xmlns="http://www.w3.org/2000/svg">
<g id="Group 36692">
<path id="Vector" d="M16.2061 17.8156C14.6187 17.8156 13.0322 17.8156 11.4449 17.8156C9.62602 17.8148 8.37458 16.8569 7.93189 15.099C6.88019 10.9203 5.83664 6.74007 4.79717 2.55819C4.73684 2.31425 4.64635 2.21912 4.37731 2.22399C3.3199 2.24188 2.26168 2.23782 1.20345 2.22887C0.388999 2.22237 -0.134405 1.59952 0.0302796 0.85307C0.131373 0.392029 0.549607 0.0114882 1.02246 0.00823568C2.56903 -0.00314803 4.11479 -0.0023349 5.66136 0.00823568C6.16683 0.0114882 6.54104 0.353 6.68045 0.896165C6.94949 1.94428 7.2226 2.99239 7.46555 4.04701C7.53648 4.356 7.6441 4.46008 7.97999 4.45927C13.8092 4.44626 19.6384 4.46496 25.4676 4.43487C26.3831 4.42999 26.9595 5.14066 26.7263 6.02697C25.9298 9.05991 25.1944 12.1091 24.4313 15.151C24.0115 16.8228 22.7356 17.8107 20.9974 17.8148C19.4003 17.8181 17.8032 17.8148 16.2061 17.8148V17.8156ZM8.16669 6.70592C8.16424 6.74821 8.15853 6.76935 8.16261 6.78805C8.8189 9.4063 9.47275 12.0262 10.1356 14.6428C10.3003 15.2933 10.6883 15.5812 11.3723 15.582C14.5853 15.5844 17.7983 15.5852 21.0113 15.582C21.7018 15.582 22.0866 15.2705 22.2529 14.607C22.778 12.5181 23.3038 10.43 23.828 8.34111C23.9626 7.80445 24.0914 7.26698 24.2283 6.70674H8.16669V6.70592Z" fill="black"/>
<path id="Vector_2" d="M10.0269 24.4829C8.80072 24.4747 7.79467 23.46 7.80935 22.2452C7.82402 21.0068 8.83414 20.027 10.0872 20.0351C11.3028 20.0432 12.308 21.0718 12.2909 22.2899C12.2738 23.5112 11.262 24.491 10.0269 24.4829Z" fill="black"/>
<path id="Vector_3" d="M22.3285 24.4837C21.0925 24.4837 20.1028 23.4998 20.0979 22.2671C20.093 21.0385 21.0877 20.0375 22.3155 20.0359C23.5653 20.0343 24.5697 21.0303 24.5664 22.2687C24.5632 23.4908 23.5604 24.4837 22.3285 24.4837Z" fill="black"/>
</g>
</svg>
