<svg width="32" height="29" viewBox="0 0 32 29" fill="none" xmlns="http://www.w3.org/2000/svg">
<path d="M0.00163172 22.4706C0.00163172 21.8483 0.00163172 21.2252 0.00163172 20.6029C0.0432405 20.3526 0.0856651 20.1031 0.125642 19.8528C0.344292 18.4955 0.79383 17.2161 1.64151 16.0781C2.30398 15.1888 3.12637 14.4713 4.28978 14.19C4.65855 14.1007 5.05098 14.0712 5.43362 14.0584C6.06835 14.0372 6.70391 14.0531 7.37699 14.0531C7.33049 13.9881 7.31907 13.9631 7.29867 13.9465C6.36533 13.1729 5.7567 12.202 5.33653 11.1253C4.66997 9.41713 4.52067 7.65454 4.78501 5.86321C4.94247 4.79552 5.25984 3.76564 5.8032 2.80457C5.96474 2.5195 6.19155 2.4333 6.44691 2.54824C6.71533 2.66922 6.78386 2.90136 6.62966 3.19626C5.48094 5.39364 5.33898 7.68554 5.94434 10.0266C6.25845 11.2417 6.83037 12.3533 7.83469 13.2289C9.07806 14.3132 10.6421 14.3291 11.9213 13.2811C12.4941 12.8115 12.9273 12.2414 13.2479 11.6054C14.3648 9.38688 14.4896 7.08742 13.8296 4.74184C13.5049 3.58643 12.9485 2.53462 11.998 1.69756C11.0459 0.85899 9.8727 0.617777 8.80964 1.0934C8.38784 1.28244 8.02723 1.59095 7.64704 1.85484C7.40391 2.02422 7.14774 2.03103 6.9658 1.84804C6.78876 1.66959 6.79365 1.43972 6.99762 1.24236C7.14529 1.09945 7.30683 0.969388 7.47 0.841598C8.03376 0.399249 8.69787 0.155768 9.40603 0H21.6814C22.2199 0.207942 22.8024 0.351611 23.2879 0.636681C24.4089 1.2968 25.0885 2.30702 25.5845 3.42235C26.4403 5.34751 26.5921 7.34905 26.2339 9.38613C25.9875 10.7873 25.4646 12.0962 24.5035 13.2251C24.2677 13.5019 23.9936 13.7514 23.7137 14.0365C23.8337 14.0425 23.9308 14.0508 24.027 14.0508C24.6683 14.0523 25.3096 14.0493 25.95 14.0523C26.6875 14.0561 27.3737 14.23 28.0027 14.5938C28.8357 15.0754 29.4713 15.734 29.9306 16.5235C31.5705 19.3439 31.6512 22.271 30.5743 25.2676C30.5457 25.3462 30.4943 25.4211 30.4397 25.4876C30.3018 25.6555 30.1239 25.7258 29.9053 25.6328C29.6915 25.5421 29.6148 25.372 29.654 25.167C29.6801 25.0294 29.7364 24.8963 29.7821 24.7617C30.5808 22.4479 30.5653 20.1469 29.6132 17.8755C29.1833 16.8501 28.5469 15.951 27.5222 15.3318C26.761 14.872 25.928 14.9023 25.0624 14.9514C27.0898 16.7889 27.7539 19.0762 27.7449 21.5625C27.7359 24.0419 27.0571 26.3202 25.0175 28.1304C25.2174 28.1304 25.3707 28.1213 25.5225 28.1319C26.947 28.2295 27.9774 27.6155 28.7786 26.5871C28.8504 26.4956 28.9132 26.3973 28.994 26.3134C29.1637 26.1357 29.3701 26.0941 29.5944 26.2196C29.8058 26.3383 29.8686 26.5735 29.7511 26.7882C29.7103 26.8631 29.6573 26.9334 29.6042 27.0022C28.6097 28.2922 27.3427 29.0068 25.5462 28.9954C18.8602 28.9531 12.1742 28.9682 5.48828 28.9871C4.13477 28.9909 3.06844 28.5055 2.18732 27.6041C1.14139 26.5342 0.575996 25.2442 0.252916 23.8528C0.146855 23.3961 0.0832176 22.9311 0 22.4691L0.00163172 22.4706ZM10.4756 21.7651C10.4511 22.3814 10.5686 23.2479 10.8101 24.0986C11.1487 25.2903 11.6823 26.3905 12.6589 27.2586C13.934 28.392 15.4883 28.414 16.8091 27.3289C17.3884 26.8533 17.8208 26.2703 18.1382 25.6215C19.3057 23.2313 19.3775 20.7814 18.5241 18.3019C18.148 17.2085 17.545 16.2308 16.5432 15.514C15.4589 14.7382 14.1853 14.7268 13.0725 15.4686C12.5275 15.8316 12.1049 16.3004 11.7606 16.8297C10.8273 18.2664 10.4748 19.8407 10.4756 21.7651ZM9.5382 21.5148L9.62142 21.5012C9.48925 20.6755 9.40848 19.8392 9.21267 19.0271C8.9206 17.8165 8.36418 16.7102 7.39331 15.8233C6.10344 14.6452 4.48804 14.624 3.15248 15.7597C2.61319 16.218 2.20445 16.7692 1.89605 17.3794C0.809332 19.5292 0.667372 21.7628 1.26213 24.0479C1.5844 25.2842 2.1506 26.4124 3.16879 27.3009C4.40156 28.3777 5.98351 28.42 7.21708 27.3523C7.6911 26.9417 8.10229 26.4374 8.42374 25.9134C9.25755 24.5568 9.54391 23.0634 9.5382 21.5156V21.5148ZM16.2356 14.0523C16.7455 14.0523 17.1787 14.0486 17.6119 14.0531C18.2793 14.0599 18.8643 13.8505 19.3905 13.4837C20.2015 12.9181 20.7391 12.1597 21.1348 11.3105C21.9988 9.45569 22.1359 7.52523 21.7712 5.55394C21.5525 4.37132 21.1177 3.25826 20.3181 2.30097C19.0446 0.775813 17.9611 0.756153 16.2772 0.894529C19.9078 3.83748 19.8466 11.0958 16.2356 14.0531V14.0523ZM17.3566 14.9794C19.3513 16.7858 20.0187 19.0747 20.0097 21.5587C20.0016 24.0351 19.3261 26.3179 17.2774 28.1319C17.6952 28.1319 18.0598 28.1266 18.4245 28.1327C19.2583 28.1463 19.973 27.8741 20.5914 27.3674C21.3567 26.7413 21.8617 25.9512 22.2256 25.0808C22.8383 23.6139 23.0145 22.091 22.8604 20.5296C22.7241 19.1511 22.3219 17.8566 21.5174 16.6754C20.5384 15.2388 19.1498 14.68 17.3566 14.9794ZM17.3672 10.9309C17.3965 10.8871 17.4145 10.8667 17.4243 10.8432C17.461 10.7555 17.4985 10.6686 17.5295 10.5793C18.0582 9.08367 18.1602 7.55019 17.9424 6.00159C17.7661 4.74713 17.3655 3.55241 16.5685 2.5074C15.2737 0.808328 14.1551 0.753884 12.4549 0.885455C14.4562 2.68207 15.135 4.95658 15.1374 7.44659C15.1407 9.93358 14.4652 12.2081 12.4329 14.0531C12.8587 14.0531 13.2308 14.044 13.602 14.0554C14.4089 14.0796 15.1179 13.8293 15.6808 13.3189C16.1124 12.9279 16.4648 12.4591 16.832 12.0107C16.8842 11.9472 16.8613 11.7786 16.8051 11.7C16.6052 11.4164 16.3718 11.1533 16.1581 10.878C15.9623 10.6247 15.9867 10.3895 16.2127 10.2307C16.4404 10.0712 16.6851 10.1151 16.8981 10.3623C17.0555 10.5446 17.204 10.7343 17.3647 10.9317L17.3672 10.9309ZM21.187 14.9665C23.655 17.2985 24.0597 20.1696 23.7366 23.2509C24.0572 23.1027 24.3795 22.9455 24.7099 22.8048C24.9457 22.7042 25.197 22.7889 25.3096 22.9863C25.4205 23.1799 25.3504 23.4241 25.1374 23.5534C25.0362 23.6147 24.9245 23.6623 24.816 23.7145C24.4692 23.8808 24.1217 24.0464 23.7602 24.2188C23.9405 24.4517 24.1013 24.646 24.2457 24.851C24.4007 25.071 24.3575 25.3183 24.1576 25.4536C23.9569 25.5897 23.6876 25.5534 23.5032 25.3591C23.4176 25.2691 23.3433 25.1693 23.2381 25.043C22.7714 26.2264 22.1399 27.2722 21.0736 28.1312C21.5493 28.1312 21.9523 28.1274 22.3545 28.1319C23.1655 28.1417 23.863 27.8778 24.4709 27.3916C25.0575 26.9221 25.4972 26.3474 25.8342 25.7069C26.8116 23.8483 26.9927 21.8861 26.6802 19.8672C26.6671 19.7847 26.5505 19.6774 26.4591 19.6517C26.1695 19.5685 25.866 19.5269 25.5723 19.4543C25.299 19.3862 25.1684 19.1813 25.2198 18.9394C25.268 18.7155 25.4638 18.5862 25.7436 18.6188C25.9508 18.643 26.1548 18.6929 26.3873 18.7367C26.38 18.6694 26.3832 18.6233 26.3694 18.5832C26.0863 17.7514 25.7028 16.9666 25.1129 16.2785C24.5614 15.635 23.9071 15.0996 23.0056 14.9817C22.4092 14.9038 21.7924 14.9673 21.1862 14.9673L21.187 14.9665ZM22.1587 3.62348C22.2876 3.40193 22.3814 3.23709 22.4785 3.07452C22.6499 2.78567 22.893 2.68812 23.1475 2.80306C23.4111 2.92329 23.4682 3.17509 23.2944 3.48511C23.0839 3.86092 22.8612 4.23068 22.6621 4.61178C22.6058 4.71991 22.5862 4.86206 22.6017 4.98229C22.6768 5.55092 22.8032 6.11501 22.8514 6.68515C23.0048 8.52109 22.6964 10.2875 21.8389 11.9586C21.4391 12.7366 20.9007 13.4255 20.1395 14.0531C20.4699 14.0531 20.7195 14.044 20.9676 14.0546C21.9034 14.0962 22.667 13.7499 23.3213 13.1624C23.9593 12.5892 24.4056 11.8958 24.736 11.1381C25.4997 9.38991 25.6424 7.57665 25.3275 5.73013C25.1097 4.45147 24.6397 3.25826 23.7749 2.21704C22.8628 1.11835 21.6716 0.674488 20.159 0.885455C21.0818 1.62346 21.6847 2.54597 22.1579 3.62273L22.1587 3.62348ZM12.2934 28.1145C11.1275 27.186 10.4838 26.0094 10.0024 24.6672C9.53575 26.0238 8.86756 27.1822 7.73434 28.1145H12.2934ZM7.74576 14.9454C8.89286 15.8875 9.53657 17.0422 10.0081 18.3859C10.4658 17.0369 11.1332 15.8875 12.255 14.9454H7.74576Z" fill="white"/>
<path d="M13.2455 7.04276C13.2145 8.59439 13.0367 9.715 12.517 10.7698C12.2216 11.3687 11.8374 11.9086 11.2597 12.3079C10.3827 12.9135 9.35144 12.9067 8.50866 12.261C8.21495 12.0356 7.96774 11.7521 7.73114 11.4715C7.53452 11.2387 7.5949 10.9717 7.8266 10.8281C8.04933 10.6897 8.29001 10.7487 8.48908 10.9755C8.66122 11.1721 8.82521 11.3831 9.02999 11.5472C9.61414 12.0152 10.2579 12.0266 10.8029 11.5207C11.1406 11.2077 11.4621 10.8326 11.6432 10.4288C12.5618 8.38191 12.5618 6.32366 11.5445 4.3017C11.365 3.94556 11.0696 3.61512 10.7531 3.34971C10.2048 2.88997 9.58233 2.92324 9.0202 3.37164C8.47847 3.80416 8.16518 4.37354 7.94327 4.98602C7.41541 6.44389 7.39012 7.92292 7.77112 9.4133C7.78744 9.47682 7.8111 9.54033 7.81844 9.60536C7.84781 9.87153 7.70748 10.0621 7.4513 10.112C7.22939 10.1551 6.97647 10.022 6.92181 9.78306C6.80514 9.27795 6.67134 8.77057 6.6281 8.2579C6.50491 6.81213 6.66808 5.39813 7.34035 4.06579C7.62345 3.50548 7.9963 3.00112 8.53476 2.62078C9.43221 1.98788 10.4626 2.00073 11.3372 2.6601C12.1613 3.28165 12.6173 4.12552 12.867 5.04954C13.0783 5.82989 13.1721 6.63746 13.2463 7.04276H13.2455Z" fill="white"/>
<path d="M9.92747 5.91613C9.27886 6.5203 9.35718 8.62618 9.93644 8.97931C10.1983 8.6708 10.2734 8.30331 10.324 7.92901C10.3476 7.75131 10.3452 7.57059 10.3737 7.39441C10.4121 7.15471 10.5842 7.0239 10.8372 7.02919C11.0933 7.03448 11.2785 7.18798 11.2818 7.41709C11.2908 8.14149 11.1904 8.85379 10.7066 9.45493C10.2457 10.0288 9.48854 10.0228 9.08877 9.40578C8.84564 9.02921 8.6841 8.58233 8.59925 8.1483C8.45729 7.41936 8.51359 6.68363 8.79995 5.97814C8.83911 5.88135 8.88399 5.78532 8.93946 5.69609C9.1728 5.31801 9.47304 5.00119 9.98947 5.05109C10.5165 5.10175 10.7882 5.46698 10.975 5.8821C11.0835 6.12256 10.971 6.35772 10.7319 6.44771C10.4708 6.54601 10.2791 6.453 10.1388 6.24355C10.0702 6.14146 10.0058 6.03787 9.92665 5.91538L9.92747 5.91613Z" fill="white"/>
<path d="M11.4571 21.5163C11.4611 20.3738 11.6512 19.2645 12.1636 18.218C12.4655 17.6017 12.8612 17.0475 13.4657 16.6437C14.306 16.0826 15.2965 16.0894 16.1254 16.6701C16.8858 17.2032 17.3304 17.942 17.6144 18.7601C18.3209 20.7949 18.2866 22.8184 17.3949 24.8048C17.1061 25.4483 16.6826 26.0139 16.0561 26.4207C15.2035 26.9742 14.2424 26.9682 13.4306 26.3663C13.11 26.1289 12.844 25.8211 12.587 25.5201C12.3986 25.3001 12.4606 25.0445 12.68 24.9024C12.8946 24.7632 13.1541 24.8207 13.3482 25.0324C13.5514 25.254 13.7431 25.4929 13.9846 25.6736C14.4929 26.0547 15.0623 26.0427 15.5788 25.6714C16.0936 25.3016 16.4183 24.8003 16.6345 24.2453C17.4014 22.2747 17.3908 20.3155 16.4289 18.401C16.2494 18.0441 15.9606 17.7121 15.6506 17.4384C15.0974 16.9499 14.4456 16.9741 13.8736 17.4475C13.1932 18.0108 12.8636 18.7594 12.6466 19.5518C12.2843 20.8728 12.2998 22.1991 12.649 23.5224C12.7396 23.8657 12.6352 24.0993 12.3602 24.1629C12.0673 24.2302 11.8267 24.0933 11.7589 23.75C11.6137 23.0112 11.5028 22.2672 11.3779 21.5254L11.4563 21.5163H11.4571Z" fill="white"/>
<path d="M14.7996 19.998C14.1926 20.4063 14.1877 22.6256 14.7947 23.0453C15.1031 22.6914 15.1586 22.2649 15.2084 21.8392C15.2222 21.7175 15.2051 21.5927 15.2255 21.4725C15.2679 21.2313 15.4662 21.0861 15.7174 21.102C15.9826 21.1194 16.1401 21.2653 16.1433 21.5005C16.1515 22.1863 16.0544 22.8578 15.6342 23.4445C15.1618 24.1047 14.3909 24.1077 13.9193 23.4445C13.4461 22.7799 13.3335 22.0169 13.4167 21.2502C13.4714 20.7451 13.6435 20.2445 13.8198 19.7598C13.9283 19.4626 14.1861 19.2343 14.532 19.145C15.1096 18.9968 15.9002 19.5624 15.8643 20.1212C15.8553 20.2634 15.7003 20.4471 15.5575 20.5197C15.3691 20.615 15.1602 20.5311 15.0313 20.3511C14.9497 20.2369 14.8771 20.1175 14.7996 19.998Z" fill="white"/>
<path d="M2.7836 21.5284C2.89619 22.2051 2.99981 22.8834 3.12463 23.5587C3.18174 23.8672 3.09608 24.088 2.84398 24.1583C2.55516 24.2392 2.28267 24.0985 2.22556 23.7696C2.09747 23.0278 1.94409 22.2823 1.92206 21.5352C1.88861 20.3881 2.08523 19.2561 2.63838 18.2157C2.87743 17.7658 3.18011 17.3219 3.54969 16.959C4.58012 15.9502 5.98422 15.9903 7.00078 17.0126C7.72526 17.7408 8.11198 18.627 8.32736 19.579C8.73121 21.3635 8.63902 23.1171 7.85335 24.8101C7.57269 25.4143 7.1819 25.9534 6.60916 26.3579C5.71254 26.9908 4.67558 26.981 3.81159 26.3103C3.54235 26.1008 3.31065 25.843 3.09363 25.5844C2.85948 25.3061 2.89538 25.0543 3.14748 24.897C3.38 24.7526 3.63046 24.8267 3.8483 25.0846C4.00413 25.2691 4.16322 25.4589 4.35332 25.6109C4.93013 26.0729 5.56813 26.0623 6.14005 25.5935C6.7397 25.1012 7.06849 24.4555 7.2798 23.7583C7.83458 21.9291 7.78726 20.125 6.88737 18.3926C6.69075 18.0145 6.37338 17.6629 6.03154 17.3832C5.50449 16.9514 4.91544 16.9945 4.37453 17.4157C3.83525 17.8361 3.52685 18.3941 3.2927 18.9945C2.97533 19.8096 2.84235 20.6528 2.85785 21.5186L2.7836 21.5284Z" fill="white"/>
<path d="M5.25357 19.985C4.64168 20.4758 4.66289 22.6285 5.30742 23.0845C5.41838 22.7737 5.53913 22.4924 5.615 22.2013C5.66885 21.9934 5.6664 21.7718 5.6819 21.5563C5.70311 21.275 5.87934 21.0996 6.15102 21.1011C6.42923 21.1019 6.60219 21.2713 6.60464 21.5616C6.60953 22.1817 6.5051 22.782 6.17305 23.3303C5.9699 23.666 5.68924 23.9276 5.24542 23.9314C4.7869 23.9352 4.49319 23.6698 4.29249 23.3212C3.89109 22.6255 3.7785 21.8686 3.8862 21.1011C3.95065 20.6421 4.09261 20.1801 4.28678 19.7537C4.50951 19.2652 4.91173 19.0769 5.36616 19.1283C5.76185 19.1729 6.22526 19.5964 6.33051 20.0206C6.38599 20.2429 6.28808 20.4153 6.06943 20.5075C5.84997 20.5998 5.64845 20.5499 5.50486 20.3646C5.41267 20.2452 5.33679 20.1143 5.25113 19.9843L5.25357 19.985Z" fill="white"/>
</svg>
