<svg fill="none" height="23" viewBox="0 0 25 23" width="25" xmlns="http://www.w3.org/2000/svg">
    <path
        d="M24.1 3.03049V3.05108V19.9458V19.9775L24.0818 20.0033C24.0774 20.0095 24.0731 20.0149 24.0705 20.018L24.069 20.0198C23.8823 20.7205 23.5763 21.2427 23.1231 21.5888C22.6675 21.9368 22.0757 22.0974 21.3378 22.0974H21.3111H21.2844H21.2577H21.231H21.2043H21.1776H21.1509H21.1242H21.0975H21.0707H21.044H21.0173H20.9906H20.9639H20.9372H20.9105H20.8838H20.8571H20.8304H20.8037H20.777H20.7503H20.7236H20.6968H20.6701H20.6434H20.6167H20.59H20.5633H20.5366H20.5099H20.4832H20.4565H20.4298H20.4031H20.3764H20.3496H20.3229H20.2962H20.2695H20.2428H20.2161H20.1894H20.1627H20.136H20.1093H20.0826H20.0559H20.0292H20.0025H19.9757H19.949H19.9223H19.8956H19.8689H19.8422H19.8155H19.7888H19.7621H19.7354H19.7087H19.682H19.6553H19.6285H19.6018H19.5751H19.5484H19.5217H19.495H19.4683H19.4416H19.4149H19.3882H19.3615H19.3348H19.308H19.2813H19.2546H19.2279H19.2012H19.1745H19.1478H19.1211H19.0944H19.0677H19.041H19.0143H18.9876H18.9608H18.9341H18.9074H18.8807H18.854H18.8273H18.8006H18.7739H18.7472H18.7205H18.6938H18.6671H18.6403H18.6136H18.5869H18.5602H18.5335H18.5068H18.4801H18.4534H18.4267H18.4H18.3733H18.3466H18.3198H18.2931H18.2664H18.2397H18.213H18.1863H18.1596H18.1329H18.1062H18.0795H18.0528H18.0261H17.9993H17.9726H17.9459H17.9192H17.8925H17.8658H17.8391H17.8124H17.7857H17.759H17.7323H17.7056H17.6789H17.6521H17.6254H17.5987H17.572H17.5453H17.5186H17.4919H17.4652H17.4385H17.4118H17.3851H17.3583H17.3316H17.3049H17.2782H17.2515H17.2248H17.1981H17.1714H17.1447H17.118H17.0913H17.0646H17.0378H17.0111H16.9844H16.9577H16.931H16.9043H16.8776H16.8509H16.8242H16.7975H16.7708H16.7441H16.7173H16.6906H16.6639H16.6372H16.6105H16.5838H16.5571H16.5304H16.5037H16.477H16.4503H16.4235H16.3968H16.3701H16.3434H16.3167H16.29H16.2633H16.2366H16.2099H16.1832H16.1565H16.1298H16.103H16.0763H16.0496H16.0229H15.9962H15.9695H15.9428H15.9161H15.8894H15.8627H15.836H15.8092H15.7825H15.7558H15.7291H15.7024H15.6757H15.649H15.6223H15.5956H15.5689H15.5422H15.5155H15.4887H15.462H15.4353H15.4086H15.3819H15.3552H15.3285H15.3018H15.2751H15.2484H15.2217H15.1949H15.1682H15.1415H15.1148H15.0881H15.0614H15.0347H15.008H14.9813H14.9546H14.9279H14.9012H14.8744H14.8477H14.821H14.7943H14.7676H14.7409H14.7142H14.6875H14.6608H14.6341H14.6074H14.5806H14.5539H14.5272H14.5005H14.4738H14.4471H14.4204H14.3937H14.367H14.3403H14.3136H14.2868H14.2601H14.2334H14.2067H14.18H14.1533H14.1266H14.0999H14.0732H14.0465H14.0198H13.9931H13.9663H13.9396H13.9129H13.8862H13.8595H13.8328H13.8061H13.7794H13.7527H13.726H13.6993H13.6725H13.6458H13.6191H13.5924H13.5657H13.539H13.5123H13.4856H13.4589H13.4322H13.4055H13.3788H13.352H13.3253H13.2986H13.2719H13.2452H13.2185H13.1918H13.1651H13.1384H13.1117H13.085H13.0582H13.0315H13.0048H12.9781H12.9514H12.9247H12.898H12.8713H12.8446H12.8179H12.7912H12.7645H12.7377H12.711H12.6843H12.6576H12.6309H12.6042H12.5775H12.5508H12.5241H12.4974H12.4707H12.4439H12.4172H12.3905H12.3638H12.3371H12.3104H12.2837H12.257H12.2303H12.2036H12.1769H12.1502H12.1234H12.0967H12.07H12.0433H12.0166H11.9899H11.9632H11.9365H11.9098H11.8831H11.8564H11.8296H11.8029H11.7762H11.7495H11.7228H11.6961H11.6694H11.6427H11.616H11.5893H11.5626H11.5359H11.5091H11.4824H11.4557H11.429H11.4023H11.3756H11.3489H11.3222H11.2955H11.2688H11.2421H11.2154H11.1886H11.1619H11.1352H11.1085H11.0818H11.0551H11.0284H11.0017H10.975H10.9483H10.9216H10.8949H10.8681H10.8414H10.8147H10.788H10.7613H10.7346H10.7079H10.6812H10.6545H10.6278H10.6011H10.5744H10.5476H10.5209H10.4942H10.4675H10.4408H10.4141H10.3874H10.3607H10.334H10.3073H10.2806H10.2539H10.2271H10.2004H10.1737H10.147H10.1203H10.0936H10.0669H10.0402H10.0135H9.98678H9.96007H9.93336H9.90665H9.87995H9.85324H9.82653H9.79982H9.77311H9.74641H9.7197H9.69299H9.66628H9.63957H9.61287H9.58616H9.55945H9.53274H9.50603H9.47933H9.45262H9.42591H9.3992H9.3725H9.34579H9.31908H9.29237H9.26567H9.23896H9.21225H9.18554H9.15883H9.13213H9.10542H9.07871H9.052H9.0253H8.99859H8.97188H8.94517H8.91847H8.89176H8.86505H8.83834H8.81164H8.78493H8.75822H8.73151H8.7048H8.6781H8.65139H8.62468H8.59797H8.57127H8.54456H8.51785H8.49114H8.46444H8.43773H8.41102H8.38432H8.35761H8.3309H8.30419H8.27749H8.25078H8.22407H8.19736H8.17066H8.14395H8.11724H8.09054H8.06383H8.03712H8.01041H7.98371H7.957H7.93029H7.90358H7.87688H7.85017H7.82346H7.79676H7.77005H7.74334H7.71663H7.68993H7.66322C7.2392 22.0974 6.81503 22.0981 6.39077 22.0987C5.40043 22.1002 4.4096 22.1017 3.41902 22.095C2.02935 22.0857 0.903017 20.9997 0.901762 19.6527L0.901762 19.6527C0.898761 14.2167 0.899362 8.78014 0.905363 3.34414C0.905377 3.09843 0.952637 2.84544 1.02862 2.61494C1.37561 1.5558 2.32844 0.901282 3.48685 0.900663L3.4869 0.900663C9.49722 0.900066 15.5075 0.900066 21.5179 0.900066C21.5249 0.900066 21.5321 0.900049 21.5394 0.900032C21.5768 0.899943 21.6176 0.899848 21.6576 0.901999L24.1 3.03049ZM24.1 3.03049L24.0919 3.01157M24.1 3.03049L24.0919 3.01157M24.0919 3.01157C24.0453 2.90334 24.0045 2.79489 23.9628 2.68403C23.9372 2.61571 23.9111 2.54647 23.8832 2.47581C23.8116 2.29481 23.7305 2.11291 23.6198 1.94755L23.6198 1.94753M24.0919 3.01157L23.6198 1.94753M23.6198 1.94753C23.1602 1.2613 22.4674 0.945129 21.6577 0.902002L23.6198 1.94753ZM2.07091 6.61245C2.06784 6.58378 2.06557 6.55862 2.06557 6.53093L2.06557 6.53082C2.06528 6.28148 2.06471 6.0322 2.06414 5.78297C2.06234 5.00442 2.06056 4.22633 2.06737 3.44842C2.0705 3.09076 2.17511 2.78969 2.35742 2.56095C2.53963 2.33233 2.80397 2.17025 3.13667 2.09791L3.11543 2.0002M2.07091 6.61245L21.5503 1.97512C15.5165 1.97392 9.48342 1.97452 3.4497 1.97512C3.33807 1.97512 3.22345 1.97691 3.11543 2.0002M2.07091 6.61245H22.9326C22.9326 6.30844 22.9341 6.00476 22.9355 5.70133C22.9392 4.91278 22.943 4.12588 22.9218 3.33918V3.33913C22.9117 2.95641 22.7631 2.64228 22.5233 2.42334C22.283 2.2039 21.9455 2.07512 21.5502 2.07512C15.5167 2.07392 9.48384 2.07452 3.45033 2.07512H3.44971H3.4497C3.33759 2.07512 3.23284 2.07718 3.1365 2.09795L3.11543 2.0002M2.07091 6.61245L1.96414 5.78361C1.96235 5.00493 1.96055 4.22607 1.96737 3.44755C1.97398 2.69342 2.40967 2.15365 3.11543 2.0002M6.54698 20.923H6.54692C6.3174 20.9231 6.08793 20.9233 5.85849 20.9235C5.05591 20.9242 4.25372 20.9248 3.45113 20.923C3.05209 20.9221 2.71508 20.7915 2.47533 20.5693C2.23597 20.3474 2.0875 20.0286 2.07452 19.6392L1.97458 19.6425L2.07452 19.6391C2.0564 19.0968 2.06025 18.5546 2.06412 18.01C2.06573 17.7833 2.06734 17.5562 2.06737 17.3284H6.63422V20.9183C6.60513 20.9209 6.57724 20.923 6.54698 20.923ZM18.3573 20.9236V17.3338H22.93C22.9325 17.3671 22.9344 17.3985 22.9344 17.4315V17.4316C22.9348 17.6553 22.9333 17.88 22.9318 18.1052C22.9288 18.5653 22.9257 19.0276 22.9386 19.4876C22.9644 20.4215 22.2229 20.9583 21.486 20.932L21.486 20.932C20.7905 20.9073 20.0925 20.913 19.3971 20.9187C19.0972 20.9211 18.7977 20.9236 18.4992 20.9236H18.4988H18.4983H18.4979H18.4975H18.497H18.4966H18.4962H18.4957H18.4953H18.4949H18.4944H18.494H18.4936H18.4931H18.4927H18.4923H18.4918H18.4914H18.491H18.4905H18.4901H18.4897H18.4892H18.4888H18.4884H18.488H18.4875H18.4871H18.4867H18.4862H18.4858H18.4854H18.4849H18.4845H18.4841H18.4836H18.4832H18.4828H18.4823H18.4819H18.4815H18.481H18.4806H18.4802H18.4797H18.4793H18.4789H18.4784H18.478H18.4776H18.4771H18.4767H18.4763H18.4758H18.4754H18.475H18.4745H18.4741H18.4737H18.4732H18.4728H18.4724H18.4719H18.4715H18.4711H18.4706H18.4702H18.4698H18.4693H18.4689H18.4685H18.468H18.4676H18.4672H18.4667H18.4663H18.4659H18.4654H18.465H18.4646H18.4641H18.4637H18.4632H18.4628H18.4624H18.4619H18.4615H18.4611H18.4606H18.4602H18.4598H18.4593H18.4589H18.4585H18.458H18.4576H18.4572H18.4567H18.4563H18.4558H18.4554H18.455H18.4545H18.4541H18.4537H18.4532H18.4528H18.4524H18.4519H18.4515H18.451H18.4506H18.4502H18.4497H18.4493H18.4489H18.4484H18.448H18.4475H18.4471H18.4467H18.4462H18.4458H18.4454H18.4449H18.4445H18.444H18.4436H18.4432H18.4427H18.4423H18.4418H18.4414H18.441H18.4405H18.4401H18.4396H18.4392H18.4388H18.4383H18.4379H18.4374H18.437H18.4366H18.4361H18.4357H18.4352H18.4348H18.4344H18.4339H18.4335H18.433H18.4326H18.4321H18.4317H18.4313H18.4308H18.4304H18.4299H18.4295H18.429H18.4286H18.4282H18.4277H18.4273H18.4268H18.4264H18.4259H18.4255H18.4251H18.4246H18.4242H18.4237H18.4233H18.4228H18.4224H18.4219H18.4215H18.421H18.4206H18.4202H18.4197H18.4193H18.4188H18.4184H18.4179H18.4175H18.417H18.4166H18.4161H18.4157H18.4152H18.4148H18.4143H18.4139H18.4134H18.413H18.4125H18.4121H18.4116H18.4112H18.4107H18.4103H18.4098H18.4094H18.4089H18.4085H18.408H18.4076H18.4071H18.4067H18.4062H18.4058H18.4053H18.4049H18.4044H18.404H18.4035H18.4031H18.4026H18.4022H18.4017H18.4013H18.4008H18.4003H18.3999H18.3994H18.399H18.3985H18.3981H18.3976H18.3972H18.3967H18.3962H18.3958H18.3953H18.3949H18.3944H18.394H18.3935H18.393H18.3926H18.3921H18.3917H18.3912H18.3907H18.3903H18.3898H18.3894H18.3889H18.3884H18.388H18.3875H18.3871H18.3866H18.3861H18.3857H18.3852H18.3848H18.3843H18.3838H18.3834H18.3829H18.3824H18.382H18.3815H18.3811H18.3806H18.3801H18.3797H18.3792H18.3787H18.3783H18.3778H18.3773H18.3769H18.3764H18.3759H18.3755H18.375H18.3745H18.3741H18.3736H18.3731H18.3727H18.3722H18.3717H18.3712H18.3708H18.3703H18.3698H18.3694H18.3689H18.3684H18.368H18.3675H18.367H18.3665H18.3661H18.3656H18.3651H18.3646H18.3642H18.3637H18.3632H18.3627H18.3623H18.3618H18.3613H18.3608H18.3604H18.3599H18.3594H18.3589H18.3585H18.358H18.3575H18.3573ZM6.63842 16.142H2.07397V12.5774H6.63842V16.142ZM18.3585 12.572H22.9158V16.1456H18.3585V12.572ZM2.07938 7.80303H6.64142V11.3856H2.07938V7.80303ZM22.9212 7.8078V11.3904H18.3585V7.8078H22.9212ZM7.83524 16.1462V12.5738H11.9016V16.1462H7.83524ZM17.1653 16.145H13.099V12.5726H17.1653V16.145ZM11.8926 11.3832H7.82984V7.80124H11.8926V11.3832ZM17.1713 7.809V11.3904H13.0984V7.809H17.1713ZM7.83224 20.9045V17.3296H11.8986V20.9045H7.83224ZM13.1044 20.9146V17.3296H17.1707V20.9146H13.1044Z"
        fill="black" stroke="black" stroke-width="0.2" />
</svg>