<svg width="38" height="38" viewBox="0 0 38 38" fill="none" xmlns="http://www.w3.org/2000/svg">
<g id="Vector">
<path fill-rule="evenodd" clip-rule="evenodd" d="M36.3465 1.6535C37.812 3.11898 37.812 5.495 36.3465 6.96049L6.9605 36.3465C5.49501 37.812 3.11899 37.812 1.6535 36.3465C0.188019 34.881 0.188017 32.505 1.6535 31.0395L31.0395 1.6535C32.505 0.188011 34.881 0.188011 36.3465 1.6535Z" fill="#616161"/>
<path fill-rule="evenodd" clip-rule="evenodd" d="M36.3465 36.3465C34.881 37.812 32.505 37.812 31.0395 36.3465L1.65349 6.96049C0.18801 5.495 0.18801 3.11898 1.6535 1.6535C3.11898 0.188012 5.495 0.188009 6.96048 1.65349L36.3465 31.0395C37.812 32.505 37.812 34.881 36.3465 36.3465Z" fill="#616161"/>
</g>
</svg>
